<?xml version="1.0" encoding="UTF-8"?>
<!DOCTYPE svg PUBLIC "-//W3C//DTD SVG 1.1//EN" "http://www.w3.org/Graphics/SVG/1.1/DTD/svg11.dtd">
<!-- Creator: CorelDRAW Home & Student X8 -->
<svg xmlns="http://www.w3.org/2000/svg" xml:space="preserve" width="6.98789in" height="7.02394in" version="1.1" style="shape-rendering:geometricPrecision; text-rendering:geometricPrecision; image-rendering:optimizeQuality; fill-rule:evenodd; clip-rule:evenodd"
viewBox="0 0 6988 7024"
 xmlns:xlink="http://www.w3.org/1999/xlink">
 <defs>
  <style type="text/css">
   <![CDATA[
    .fil8 {fill:#50585D}
    .fil2 {fill:#DCDDDD}
    .fil3 {fill:#EEEEEF}
    .fil4 {fill:#FEFEFE}
    .fil6 {fill:#1FB4B2;fill-rule:nonzero}
    .fil5 {fill:#50585D;fill-rule:nonzero}
    .fil0 {fill:#EF8781;fill-rule:nonzero}
    .fil7 {fill:#FEFEFE;fill-rule:nonzero}
    .fil1 {fill:#EF8781;fill-rule:nonzero;fill-opacity:0.501961}
   ]]>
  </style>
 </defs>
 <g id="Layer_x0020_1">
  <metadata id="CorelCorpID_0Corel-Layer"/>
  <path class="fil0" d="M6143 4648c7,2 11,8 -14,39 5,-14 10,-26 14,-39 -8,-3 -19,-4 -18,-24 -30,140 -80,302 -152,450 2,25 4,50 8,73 95,-182 173,-373 220,-563 47,-190 63,-377 45,-543 -11,115 -23,212 -37,308 -14,96 -33,191 -66,299z"/>
  <path class="fil0" d="M6207 5315c-11,10 -22,20 -33,30 40,-21 40,-26 33,-30z"/>
  <path class="fil0" d="M2298 1296c-210,108 -360,260 -489,418 77,-75 162,-140 248,-205 88,-60 177,-119 269,-167 182,-100 364,-176 524,-236 -189,45 -374,109 -552,190z"/>
  <path class="fil0" d="M1318 2553c17,-27 38,-52 55,-79 17,-26 33,-52 51,-76 17,-25 33,-50 48,-74 16,-24 32,-48 47,-72 14,-24 30,-47 45,-70 14,-24 29,-47 43,-70 30,-44 57,-92 88,-135 -146,156 -265,332 -364,516 -5,19 -11,40 -13,60z"/>
  <path class="fil0" d="M1409 2261c148,-197 261,-377 400,-547 -176,164 -314,359 -400,547z"/>
  <path class="fil0" d="M6587 1789c79,93 139,172 182,237 45,65 74,116 93,153 32,27 75,62 126,115 -6,-13 -11,-28 -17,-41 -121,-228 -264,-446 -428,-649 -38,-39 -75,-76 -111,-110 -37,-33 -74,-63 -109,-89l71 93c23,32 44,64 66,96 46,63 86,130 127,195z"/>
  <path class="fil0" d="M6862 2179c-137,-110 -99,-37 -46,26 52,63 122,121 46,-26z"/>
  <path class="fil0" d="M5376 1538c-8,-7 -15,-13 -23,-19 -23,-16 -47,-32 -70,-48 32,23 62,44 93,67z"/>
  <path class="fil0" d="M3161 434c189,-20 379,-28 567,-24 -387,-22 -779,30 -1077,146 46,-11 95,-9 141,-17 44,-22 100,-47 163,-65 32,-9 66,-19 100,-25 35,-6 71,-11 106,-15z"/>
  <path class="fil1" d="M6255 2558c-218,-431 -537,-790 -902,-1039 -339,-290 -742,-491 -1151,-581 -409,-91 -820,-72 -1176,35 -156,49 -337,108 -523,191 -186,81 -375,189 -546,319 -86,64 -165,136 -239,209 -35,39 -71,76 -104,115 -31,41 -64,78 -91,119 -113,161 -189,328 -222,479 18,-26 38,-50 56,-74 18,-23 34,-48 52,-70 -18,39 -32,79 -47,117 -13,38 -22,78 -31,115 -221,412 -319,869 -293,1322 17,299 89,594 211,870 197,447 412,661 796,927 3,-2 3,-5 2,-10 227,155 479,272 742,332 263,61 532,158 803,115 254,-32 377,22 611,-84 22,-10 40,-14 56,-15 15,-2 28,-1 40,1 25,4 47,11 80,2 131,-34 147,-35 261,-90 114,-56 158,-35 274,-142 0,0 20,18 30,27 31,-38 57,-73 85,-97 3,52 114,-21 97,35 -12,19 -187,152 -283,225 -64,49 -3,6 54,38 -9,25 218,-136 213,-116 -9,40 -7,67 23,68 30,1 82,-63 179,-132l1 1c-15,21 -27,41 -39,61 -2,2 -4,3 -6,5 1,0 1,1 2,1 -62,93 -43,49 -66,125 56,-46 407,-258 459,-309 4,23 10,42 29,50 -2,7 -4,14 -7,21 -24,23 -44,42 -44,42 0,15 1,28 4,40 -27,44 -62,90 -97,136 -37,45 -34,30 -66,68 -66,73 -260,208 -219,213 28,-3 55,47 105,5 25,-21 40,-60 68,-87 28,-27 57,-58 86,-89 11,-3 23,-8 34,-13 -80,79 -66,97 -42,107 23,10 57,14 7,63 -144,118 -347,276 -510,367 -167,93 -334,168 -502,230 -168,62 -337,110 -508,144 -172,35 -346,58 -525,69 -178,10 -361,6 -551,-13 -33,-4 -66,-6 -99,-12 -184,-24 -359,-69 -528,-128 -169,-59 -332,-135 -487,-228 25,3 50,7 76,11 -251,-143 -486,-311 -712,-495 -279,-222 -523,-497 -718,-812 -194,-315 -335,-675 -404,-1062 -71,-406 -70,-818 -1,-1222 69,-404 205,-802 415,-1175 -161,311 -277,640 -359,983 -10,39 -20,77 -30,115 -8,39 -16,77 -24,116 -8,38 -14,77 -20,115 -5,38 -11,77 -15,115 6,-40 13,-78 20,-117l9 -58 11 -58c8,-38 15,-76 23,-115 9,-37 17,-75 26,-113 80,-295 208,-577 342,-835 136,-257 283,-490 404,-709 44,-30 52,-22 88,-57 125,-126 264,-237 398,-342 135,-105 271,-198 392,-296 -7,-12 131,-82 73,-82 17,-10 34,-19 51,-29 18,-9 36,-18 54,-27 36,-18 73,-36 110,-53 76,-33 153,-68 232,-96 79,-31 160,-56 238,-83 40,-12 79,-24 118,-36 19,-5 39,-11 58,-17 19,-6 38,-11 57,-16 33,-9 66,-18 99,-28 32,-10 65,-19 98,-30 66,-21 133,-42 200,-63 1130,-167 2376,201 3278,1153 221,237 426,555 565,852 -246,-417 -568,-799 -951,-1109 -171,-166 -357,-310 -546,-422 -188,-113 -383,-191 -566,-234 -41,-10 -83,-21 -125,-32 -42,-9 -84,-19 -126,-28 497,144 961,389 1363,716 203,195 385,420 543,653 -4,-4 -8,-8 -12,-12 -139,-173 -293,-333 -459,-480 -144,-151 -299,-286 -459,-398 -161,-109 -325,-197 -486,-254 -40,-16 -81,-27 -120,-38 -81,-26 -164,-47 -245,-69 297,101 581,236 844,406 164,104 319,224 466,353 84,89 164,183 239,281 -10,-8 -21,-17 -32,-24 -40,-37 -138,-87 -217,-104 -79,-17 -136,-6 -98,62 134,141 272,306 393,481 122,175 227,358 307,527 79,170 138,322 172,433 19,55 30,100 38,131 8,31 12,48 10,48 -5,8 -15,-6 -29,-35 -15,-29 -31,-75 -56,-129 -23,-54 -48,-119 -80,-187 -30,-69 -66,-140 -102,-212 -75,-141 -155,-277 -222,-371 -17,-24 -32,-46 -45,-64 -13,-19 -25,-34 -35,-46 -20,-24 -30,-36 -28,-29 17,32 35,64 52,96l48 98c-44,-54 -86,-107 -131,-151 -43,-59 -94,-127 -141,-191 -49,-62 -97,-117 -138,-146 -139,-104 -273,-221 -419,-333 -145,-113 -303,-220 -477,-292 -54,-24 -115,-41 -175,-62 -60,-20 -125,-36 -189,-53 -131,-30 -266,-56 -403,-68 -4,12 -36,6 -64,1 -28,-5 -50,-6 -32,12 -60,-15 -122,-33 -185,-43 -32,-6 -63,-12 -93,-16 -31,-3 -61,-6 -90,-8 -58,-5 -112,-1 -158,4 -46,6 -85,19 -112,37 -6,0 -12,1 -17,1 -18,-1 -42,2 -68,7 -201,-12 -372,17 -531,65 -158,49 -305,116 -463,195 -113,43 -223,97 -337,149 37,-17 85,-35 132,-55 49,-17 96,-36 132,-57 25,-13 49,-25 73,-37 145,-58 291,-108 439,-148 149,-38 299,-67 452,-83 24,-8 65,-20 103,-29 22,2 44,4 67,6 5,-5 12,-10 18,-14 149,-11 310,-4 464,17 154,20 302,49 430,78 120,30 237,77 353,129 113,57 226,119 331,193 212,146 404,323 566,515 -181,-174 -383,-318 -593,-432 66,36 126,79 187,118 59,43 119,83 174,129 113,88 216,184 314,283 26,34 53,67 78,101 0,0 39,55 78,109 36,56 72,112 72,112 -20,-36 -40,-73 -60,-109 -22,-35 -44,-70 -67,-104 112,124 212,259 303,397 117,195 214,407 285,630 70,222 114,456 129,692 34,473 -56,957 -252,1386 -22,56 -73,61 -68,44 16,-44 50,-111 48,-121 81,-208 141,-425 169,-636 28,-211 23,-416 -15,-594 0,126 2,233 -3,339 -2,53 -4,106 -10,160 -3,27 -7,55 -10,84 -5,28 -10,57 -15,87 -8,-1 -19,-1 -20,-22 -15,155 -50,337 -111,505 -23,61 -58,75 -61,56 -8,-49 35,-212 24,-262 0,-46 11,-99 20,-158 5,-30 11,-60 16,-92 4,-31 8,-63 11,-96 20,-138 34,-275 36,-411 4,-68 1,-136 0,-203 -5,-68 -6,-135 -15,-202 -27,-267 -94,-529 -203,-777 -84,-226 -192,-444 -328,-643 -136,-198 -294,-380 -473,-535 189,141 354,301 501,472 145,172 272,354 378,548zm-5430 1622c-30,-110 -72,-222 -87,-337 -33,-174 -32,-372 -15,-554 15,-182 44,-349 41,-479 1,-22 8,-51 14,-82 6,-31 13,-61 8,-85l0 0c-33,164 -75,342 -102,532 -28,190 -42,391 -27,591 2,120 59,235 84,389 21,95 47,170 74,238 13,34 28,67 42,99 14,33 28,67 44,102 0,0 0,-7 -2,-18 -1,-11 -3,-26 -3,-41 -2,-29 -3,-59 -3,-59 29,131 84,223 138,312 28,44 54,89 84,136 14,23 27,48 41,74 91,162 301,418 444,519 136,122 279,237 414,296 29,22 112,26 179,52 39,18 78,37 117,56l119 50c-2,-4 -4,-9 -6,-13 -31,-16 -62,-31 -95,-45 -32,-14 -64,-30 -97,-43 -199,-78 -416,-211 -578,-354 -351,-321 -703,-878 -828,-1336zm3955 1930l0 0c-16,13 -33,26 -49,39 -17,12 -34,25 -51,37 7,0 14,0 21,0 35,-17 62,-47 79,-76zm-861 303l0 0c134,-13 287,-53 439,-117 152,-64 304,-150 443,-245 0,-4 -1,-8 -2,-10 -124,68 -263,141 -412,208 -149,67 -309,125 -468,164zm-1007 -283l0 0c1,2 3,4 5,6 0,-2 0,-4 0,-6 -1,0 -3,0 -5,0zm-2402 -4200l0 0c-113,236 -212,490 -286,747 -73,257 -121,515 -149,754 -10,97 -12,240 1,395 13,155 46,322 89,465 46,143 100,264 151,332 51,69 93,87 118,32 -102,-84 -205,-319 -250,-624 -49,-304 -28,-674 46,-1007 37,-166 86,-322 136,-462 26,-69 50,-134 75,-194 26,-59 46,-116 68,-164 21,-49 37,-93 50,-130 13,-37 21,-67 23,-91 4,-48 -17,-70 -72,-53zm3605 -1795l0 0c-222,-21 -436,-25 -685,-26 227,-13 457,-4 685,26zm-1985 754l0 0c62,-43 128,-78 195,-115 68,-33 137,-67 210,-94 71,-31 145,-53 220,-78 75,-20 151,-42 228,-56 154,-33 312,-53 469,-61 79,-6 157,-5 236,-6 78,2 156,3 233,9 239,16 482,87 710,177 228,90 439,196 646,276l22 -33c0,0 -12,-4 -24,-8 -12,-3 -24,-7 -24,-7 -35,-24 -69,-48 -101,-71 -31,-24 -63,-44 -94,-66 -61,-43 -121,-81 -185,-117 8,2 17,5 25,7 -14,-5 -27,-11 -41,-17 -85,-45 -178,-87 -291,-116 -52,-13 -106,-22 -159,-32l-56 -15 -57 -13 -113 -24c-76,-12 -152,-27 -228,-34 -153,-19 -307,-22 -458,-17 -151,6 -298,26 -440,54 -141,32 -277,71 -402,124 -156,59 -294,130 -423,212 -65,38 -127,84 -191,126 -62,46 -125,90 -188,139 20,-11 42,-23 66,-36 24,-11 49,-23 75,-35 26,-12 51,-25 75,-37 24,-12 46,-24 65,-36z"/>
  <path class="fil1" d="M6258 2966c-154,-422 -409,-789 -719,-1059 -281,-305 -631,-535 -999,-664 -368,-129 -750,-156 -1090,-97 -150,28 -324,63 -505,119 -181,54 -367,133 -539,235 -87,49 -168,107 -244,166 -37,32 -74,62 -109,95 -33,34 -68,65 -97,100 -123,136 -211,281 -258,417 20,-21 40,-41 60,-61 19,-20 37,-41 55,-60 -21,35 -38,70 -55,104 -17,33 -30,69 -42,102 -249,357 -391,768 -416,1189 -18,295 20,593 114,876 99,300 210,499 442,720 261,247 460,423 827,555 237,85 475,204 730,194 238,-2 345,62 574,-9 21,-7 38,-9 53,-9 14,0 26,3 37,6 22,6 42,15 73,11 126,-18 140,-17 252,-55 111,-39 149,-15 269,-101 0,0 16,19 24,28 33,-31 61,-61 89,-80 -3,48 108,-7 86,44 -13,16 -190,119 -287,176 -64,38 -2,5 46,41 -10,22 217,-102 210,-84 -13,36 -14,61 14,66 27,3 83,-50 180,-102l0 0c-16,18 -30,35 -43,52 -2,2 -3,3 -5,5 0,0 1,0 1,0 -67,80 -44,41 -74,109 56,-37 404,-194 458,-235 1,21 4,40 21,49 -3,6 -5,12 -9,19 -24,19 -45,34 -45,34 -2,14 -3,26 -1,37 -29,38 -67,76 -104,115 -40,37 -36,24 -69,55 -69,61 -263,164 -225,173 25,1 45,50 96,17 25,-17 43,-51 72,-74 29,-21 59,-47 89,-73 11,-1 22,-4 34,-7 -83,64 -72,82 -51,94 20,12 51,19 -1,59 -146,93 -351,216 -512,283 -164,67 -326,118 -488,157 -162,39 -324,64 -486,77 -162,13 -326,15 -492,6 -166,-11 -334,-35 -507,-73 -31,-7 -61,-13 -91,-22 -167,-42 -324,-103 -474,-177 -149,-73 -291,-160 -424,-264 23,6 45,12 68,19 -216,-160 -414,-341 -602,-536 -234,-236 -429,-516 -574,-829 -145,-313 -235,-661 -257,-1026 -20,-383 26,-763 134,-1129 108,-366 278,-718 514,-1040 -184,270 -327,561 -441,869 -13,35 -27,69 -40,103 -12,35 -23,70 -35,104 -12,35 -22,70 -31,105 -9,35 -19,69 -27,104 10,-36 21,-71 31,-106l15 -53 17 -52c11,-34 23,-69 34,-103 12,-34 24,-68 36,-102 106,-263 256,-510 408,-733 155,-223 316,-422 451,-611 45,-23 51,-14 89,-43 129,-102 269,-190 405,-272 136,-82 271,-153 394,-230 -5,-12 130,-62 77,-68 16,-7 33,-14 50,-21 18,-6 35,-13 53,-19 35,-12 71,-25 107,-37 74,-22 149,-45 226,-63 76,-20 153,-34 228,-50 38,-7 76,-14 113,-20 19,-4 37,-7 55,-10 19,-3 37,-6 55,-9 31,-4 63,-9 94,-15 32,-5 63,-10 95,-16 63,-13 127,-24 191,-37 1063,-29 2173,448 2901,1427 178,243 333,560 428,849 -181,-412 -436,-801 -756,-1129 -140,-172 -295,-326 -458,-450 -162,-126 -332,-219 -497,-278 -37,-15 -75,-29 -112,-44 -38,-13 -76,-26 -114,-40 444,188 846,466 1181,812 166,203 309,431 429,663 -3,-4 -6,-8 -10,-13 -108,-175 -233,-340 -371,-494 -116,-155 -244,-297 -379,-418 -137,-119 -279,-217 -422,-288 -35,-19 -72,-34 -107,-48 -71,-34 -145,-62 -218,-91 263,126 511,282 735,468 140,114 270,242 391,377 68,92 132,188 191,286 -9,-8 -19,-18 -27,-25 -33,-39 -118,-96 -189,-120 -72,-25 -126,-21 -98,46 108,145 218,313 310,488 94,175 171,356 226,521 54,165 92,312 111,419 12,53 17,96 21,125 4,29 5,45 4,45 -6,7 -14,-7 -24,-35 -10,-29 -20,-73 -36,-126 -16,-53 -32,-115 -54,-181 -20,-67 -46,-137 -71,-207 -53,-138 -113,-274 -164,-368 -13,-24 -24,-45 -34,-64 -11,-18 -21,-34 -28,-46 -15,-25 -24,-36 -23,-30 13,32 26,63 37,95l34 96c-34,-55 -68,-109 -104,-155 -34,-59 -73,-128 -109,-192 -39,-62 -77,-118 -112,-149 -117,-112 -228,-235 -350,-355 -121,-120 -255,-236 -409,-322 -47,-28 -101,-50 -154,-76 -54,-25 -112,-47 -169,-70 -118,-42 -240,-81 -364,-108 -5,12 -35,2 -60,-6 -25,-7 -46,-11 -31,8 -54,-21 -109,-44 -166,-60 -29,-9 -57,-18 -85,-25 -28,-6 -55,-12 -82,-17 -53,-11 -103,-14 -146,-14 -43,0 -80,8 -107,22 -6,0 -11,-1 -17,-1 -15,-3 -38,-3 -63,-1 -184,-33 -346,-25 -497,2 -152,27 -295,72 -450,129 -109,27 -217,64 -328,100 36,-12 83,-23 129,-36 46,-11 92,-23 128,-38 24,-9 48,-18 71,-26 141,-38 281,-68 422,-89 142,-19 283,-29 426,-27 24,-4 63,-11 99,-15 21,4 41,8 61,13 6,-4 12,-8 19,-11 139,7 286,30 426,66 140,36 274,79 389,120 107,41 210,97 311,159 99,64 196,134 285,214 180,158 338,342 467,538 -149,-181 -320,-336 -501,-464 57,40 108,86 160,129 50,46 101,90 147,138 95,94 179,194 258,297 21,34 42,67 62,102 0,0 29,54 59,109 28,55 55,111 55,111 -15,-36 -30,-71 -44,-107 -16,-35 -33,-69 -50,-104 90,128 167,263 236,400 87,194 153,400 193,613 40,214 55,434 44,654 -21,441 -158,878 -386,1253 -27,49 -74,48 -67,33 19,-39 58,-97 57,-106 98,-184 177,-378 226,-570 49,-191 67,-381 52,-549 -14,116 -24,215 -40,312 -8,49 -15,97 -28,147 -5,25 -11,50 -17,76 -8,26 -16,52 -25,79 -6,-2 -17,-3 -15,-23 -31,142 -83,306 -158,455 -28,54 -62,63 -63,45 -2,-46 56,-192 51,-239 6,-43 21,-91 36,-144 7,-27 17,-55 24,-83 8,-29 15,-58 21,-88 34,-125 62,-250 80,-376 10,-62 15,-125 22,-187 3,-63 9,-125 8,-188 4,-250 -29,-499 -102,-741 -52,-218 -128,-431 -232,-629 -104,-198 -230,-384 -378,-547 159,151 294,317 410,491 116,175 213,357 290,548zm-4931 1702l-1 3c-131,-250 -221,-521 -264,-805 -15,-105 -41,-213 -43,-321 -11,-164 12,-347 47,-513 35,-167 80,-318 91,-439 3,-19 13,-46 22,-74 9,-27 19,-55 17,-77l0 0c-49,148 -106,308 -153,480 -47,172 -82,357 -90,543 -11,111 29,224 35,368 9,91 25,163 42,229 8,33 18,64 28,96 10,32 18,65 30,99 0,0 0,-7 0,-17 0,-11 0,-24 1,-38 2,-27 4,-55 4,-55 13,124 53,215 93,304 21,43 40,88 62,134 11,23 20,48 30,73 9,21 17,43 25,67l-1 1c13,24 32,66 56,99 23,33 107,133 141,194l1 -2c23,39 47,75 73,108 20,18 41,37 54,55 31,43 273,254 294,283 2,2 6,6 9,10 17,12 34,23 51,33 24,23 101,36 160,67 34,21 68,43 102,65l104 60c-2,-5 -3,-9 -4,-14 -27,-18 -54,-35 -83,-52 -28,-16 -55,-35 -85,-50 -75,-40 -152,-90 -225,-145 0,-1 1,-2 2,-2 -101,-64 -283,-272 -321,-304 -14,-12 -25,-27 -36,-44 -25,-31 -49,-63 -72,-96 -42,-41 -125,-191 -153,-231 -15,-23 -31,-62 -43,-92zm3176 1417l0 0c-16,10 -32,20 -49,30 -17,10 -34,19 -51,29 6,1 13,1 19,2 34,-12 62,-36 81,-61zm-828 185l0 0c125,3 270,-17 418,-60 148,-42 297,-105 437,-178 0,-3 0,-7 -2,-9 -121,49 -258,102 -403,147 -145,45 -299,82 -450,100zm-900 -372l0 0c2,1 3,3 4,5 1,-2 1,-4 2,-5 -2,0 -4,0 -6,0zm-1755 -4145l0 0c-131,205 -251,429 -347,658 -96,229 -168,462 -221,681 -20,88 -37,220 -42,364 -5,145 7,302 31,440 26,137 63,254 103,323 39,69 76,91 105,43 -85,-89 -154,-317 -162,-604 -12,-287 48,-626 153,-925 53,-149 115,-289 177,-412 32,-61 61,-119 91,-171 30,-52 55,-102 81,-144 24,-43 44,-82 60,-115 16,-32 27,-60 32,-82 8,-44 -9,-65 -61,-56zm3528 -1261l0 0c-204,-44 -400,-71 -631,-99 212,12 423,46 631,99zm-1917 477l0 0c62,-32 127,-57 193,-84 66,-23 134,-47 204,-64 69,-20 140,-33 212,-47 72,-11 144,-22 217,-28 146,-12 294,-14 440,-4 73,3 146,13 218,20 72,11 144,20 215,35 218,41 436,134 636,241 200,108 384,229 566,327l24 -28c0,0 -10,-5 -21,-10 -11,-5 -21,-10 -21,-10 -30,-26 -59,-51 -85,-77 -27,-25 -55,-47 -80,-70 -52,-47 -104,-89 -158,-130 7,4 15,7 22,10 -12,-6 -24,-13 -36,-20 -74,-52 -155,-101 -256,-139 -47,-18 -96,-32 -144,-48l-50 -20 -50 -17 -102 -35c-69,-20 -138,-42 -208,-57 -139,-34 -281,-54 -420,-66 -140,-11 -279,-9 -413,2 -134,13 -264,34 -385,70 -151,36 -286,88 -414,148 -65,29 -127,64 -190,96 -62,35 -126,69 -190,108 20,-8 42,-17 65,-26 24,-8 49,-16 74,-25 25,-8 49,-17 73,-26 23,-8 45,-16 64,-26z"/>
  <path class="fil0" d="M5868 1836c131,142 251,300 354,471 44,64 81,131 121,198 37,68 75,136 108,207 154,338 235,747 225,1162 -8,416 -106,835 -259,1212 -58,157 41,166 110,47 209,-410 304,-876 300,-1335 -3,-460 -102,-913 -265,-1339 -4,-7 -8,-13 -11,-19 -112,-165 -237,-384 -399,-594 -160,-209 -353,-409 -552,-541 -203,-126 -408,-238 -620,-329 -211,-90 -430,-159 -654,-192 78,22 153,51 228,77 74,31 148,59 219,94 73,32 142,71 212,107 67,41 136,79 200,124 67,42 129,91 192,138 60,51 121,100 177,156 59,53 112,111 166,169 51,61 102,122 148,187z"/>
  <path class="fil0" d="M1695 1977c94,-103 197,-200 310,-287 155,-127 316,-229 483,-316 166,-87 339,-159 523,-212 -273,53 -540,142 -788,272 -121,71 -221,156 -305,250 -85,93 -157,190 -223,293z"/>
  <path class="fil0" d="M3314 1092c-105,17 -205,43 -303,70 202,-36 408,-52 614,-44 206,8 410,40 610,95 332,78 654,226 941,428 288,203 540,463 742,766 22,35 44,70 65,105 19,36 38,72 58,109 -130,-314 -319,-603 -550,-847 -116,-122 -242,-233 -377,-330 -136,-97 -279,-180 -426,-250 -295,-140 -610,-214 -915,-232 -153,-8 -303,0 -448,20 -36,6 -72,10 -108,18 -35,8 -70,15 -105,23 -69,19 -137,37 -202,61 -19,8 -40,14 -60,22 506,-120 1042,-101 1538,64 -353,-103 -722,-129 -1074,-78z"/>
  <path class="fil0" d="M5736 1703c28,33 57,64 82,98 34,37 70,71 101,109 -16,-26 -34,-50 -51,-74 -22,-23 -43,-46 -65,-69 -22,-21 -44,-43 -67,-64z"/>
  <path class="fil0" d="M4871 639c-5,-3 -10,-7 -16,-10 -145,-56 -295,-110 -450,-148 -218,-41 -446,-66 -677,-71 209,11 416,43 610,85 193,42 373,96 533,144z"/>
  <path class="fil0" d="M3559 2c-54,-3 -162,-2 -216,-2 -32,10 -65,19 -97,28 50,-1 101,-4 152,-2 0,0 40,-6 80,-12 20,-4 41,-7 56,-9 15,-2 25,-3 25,-3z"/>
  <path class="fil0" d="M854 1322c291,-346 642,-630 1027,-841 385,-212 805,-351 1239,-414 42,-14 84,-27 126,-39 -593,18 -1176,217 -1604,543 -85,63 -197,179 -280,239 -395,293 -687,671 -895,1073 106,-189 230,-372 375,-546 4,-5 8,-10 12,-15z"/>
  <path class="fil2" d="M4119 5183c247,13 418,41 418,74 0,45 -320,81 -715,81 -395,0 -716,-36 -716,-81 0,-23 83,-43 217,-58 33,43 126,67 313,69l104 8 154 -52c173,82 201,-42 225,-41z"/>
  <path class="fil3" d="M2064 3228l-164 -43 78 -165 109 -267c0,0 373,-295 502,-267 129,29 176,62 219,162 0,0 294,-465 802,-493 508,-29 792,189 856,223 9,-4 224,-113 364,21 93,88 229,143 229,143 0,0 -82,63 -101,56 -65,-22 -223,-82 -447,0 -293,108 -495,214 -459,458 19,131 140,249 233,323l-18 68c-65,14 -177,53 -157,146 29,128 258,21 258,21l160 -62c60,6 125,6 189,-9 29,-7 56,-15 81,-25l189 -36c0,0 344,512 -71,784 -349,228 -685,153 -1000,385l-239 -22 -327 -4c97,-113 27,-174 27,-174l-68 107c0,0 -57,0 -107,-107l14 122c0,0 -272,-158 -350,-379l-108 14c0,0 -7,-143 -78,-157 0,0 35,-186 -51,-322 -85,-136 -236,-566 -157,-694 0,0 -114,107 -200,143 -86,36 -208,50 -208,50zm674 -211c92,-98 235,-167 415,-200 174,-32 322,-29 434,18 122,50 201,147 229,301 29,159 9,353 -87,509 -78,126 -205,227 -395,264 -3,0 -6,2 -9,2 -209,38 -369,-19 -483,-122 -113,-102 -180,-247 -207,-387 0,-3 -2,-7 -2,-9 -27,-150 13,-277 105,-376z"/>
  <path class="fil3" d="M4060 4466c-22,12 -41,26 -57,45 -1,81 16,153 53,296 50,191 11,422 -195,357 0,0 -163,-289 -148,-428 -9,5 -101,103 -63,228 51,166 47,239 -108,179 68,217 -297,18 -337,-33 -392,-80 -392,-472 -47,-438 -242,175 -12,332 53,353 0,0 -35,-228 211,-480 43,-44 24,-94 23,-113l229 94 280 -23c0,0 56,-27 106,-37z"/>
  <path class="fil4" d="M2738 3017c92,-98 235,-167 415,-200 174,-32 322,-29 434,18 122,50 201,147 229,301 29,159 9,353 -87,509 -78,126 -205,227 -395,264 -3,0 -6,2 -9,2 -209,38 -369,-19 -483,-122 -113,-102 -180,-247 -207,-387 0,-3 -2,-7 -2,-9 -27,-150 13,-277 105,-376zm2265 333c0,0 -55,-57 -145,-73 0,0 47,-433 -190,-680 0,0 -623,-25 -615,451 204,534 664,474 775,433 112,-41 175,-131 175,-131z"/>
  <path class="fil5" d="M2878 2467c17,10 23,31 13,47 -9,16 -30,22 -46,13 -82,-74 -176,-129 -288,-154 -138,42 -290,125 -462,283 -9,78 -19,382 -140,478 322,72 730,-165 598,-585 -14,-37 50,-136 89,-31 58,420 -256,802 -744,716 -38,-6 -66,-34 -65,-62 1,-19 12,-37 37,-53 117,-76 148,-466 148,-467 1,-10 19,-36 26,-44 127,-136 296,-234 492,-303 12,-5 24,-6 36,-2 108,37 210,94 306,164z"/>
  <path class="fil5" d="M2928 2450c-27,37 -78,-10 -51,-44 87,-113 252,-270 521,-330 264,-59 260,-231 260,-232 5,-18 23,-29 42,-25 18,5 29,23 25,42 -1,0 -9,209 -313,282 -244,59 -398,195 -484,307z"/>
  <path class="fil5" d="M3786 2091c-13,13 -34,14 -48,1 -14,-13 -14,-35 -1,-49 0,0 194,-209 300,-217 19,-1 36,13 37,32 1,19 -13,35 -32,36 -78,6 -255,196 -256,197z"/>
  <path class="fil5" d="M3975 2216c-69,24 -91,-64 -25,-77 56,-11 267,-74 332,-178 23,-38 82,-2 58,36 -78,124 -364,219 -365,219z"/>
  <path class="fil5" d="M4232 2265c-15,12 -37,9 -48,-6 -12,-15 -9,-37 6,-48 1,0 158,-121 326,-128 19,-1 35,14 36,33 1,18 -14,34 -33,35 -146,7 -287,114 -287,114z"/>
  <path class="fil5" d="M4448 2340c-39,21 -72,-39 -32,-60 525,-278 535,142 694,152 22,2 32,7 40,19 14,22 5,48 -23,73 -15,14 -39,31 -68,46 -233,125 -335,16 -513,-125 -15,-12 -11,-26 6,-32 37,-12 98,-12 128,17 9,8 11,15 4,10 -5,-3 -13,-6 -25,-8 -12,-3 -14,4 -10,7 120,97 204,164 378,71 13,-7 25,-15 35,-22 -246,-117 -234,-357 -614,-148z"/>
  <path class="fil5" d="M4798 3325c-19,-3 -31,-21 -28,-39 3,-19 21,-32 39,-29 1,1 67,11 150,51 -15,18 -32,36 -52,51 -62,-26 -109,-34 -109,-34zm278 56c120,96 230,263 205,549 -2,19 -18,33 -37,31 -19,-1 -33,-18 -32,-37 23,-257 -75,-406 -182,-491 17,-16 32,-34 46,-52z"/>
  <path class="fil5" d="M5061 3659c-13,-14 -12,-35 3,-48 14,-13 35,-11 48,3 0,1 225,251 140,482 -7,18 -26,27 -44,20 -18,-6 -27,-26 -21,-44 72,-192 -126,-412 -126,-413z"/>
  <path class="fil5" d="M5056 3919c-21,-40 40,-71 61,-31 0,1 164,303 -155,485 -47,26 -70,-49 -21,-76 261,-148 115,-377 115,-378z"/>
  <path class="fil5" d="M4845 4172c24,-51 64,-36 41,23 -57,149 -204,173 -267,301 -28,56 -103,24 -62,-48 60,-107 254,-204 288,-276z"/>
  <path class="fil5" d="M4406 4295c26,-19 53,-18 64,-3 10,16 6,37 -9,48 -1,0 -226,135 -213,232 7,54 -68,48 -68,9 -1,-142 216,-278 226,-286z"/>
  <path class="fil5" d="M4104 4363c19,-4 37,8 40,27 3,19 -9,36 -27,40 -1,0 -254,45 -285,138 -6,18 -25,27 -43,21 -18,-6 -28,-25 -22,-43 44,-131 336,-183 337,-183z"/>
  <path class="fil5" d="M3787 4304c16,-10 37,-4 46,12 10,16 4,37 -12,47 0,0 -153,84 -203,142 -13,14 -34,16 -49,3 -14,-12 -15,-34 -3,-48 60,-68 220,-156 221,-156z"/>
  <path class="fil5" d="M3615 4111c101,-72 110,-57 59,-10 -53,50 -317,264 -365,562 -9,57 -84,45 -75,-36 33,-281 380,-515 381,-516z"/>
  <path class="fil5" d="M3145 4504c15,11 18,33 6,48 -11,15 -32,18 -47,7 -1,-1 -170,-125 -122,-252 7,-17 27,-26 44,-20 18,7 27,27 20,45 -30,77 98,172 99,172z"/>
  <path class="fil5" d="M2949 4367c39,45 -21,107 -73,47 0,0 -102,-127 -1,-270 29,-40 86,-10 58,37 -61,104 15,186 16,186z"/>
  <path class="fil5" d="M2741 4274c-59,26 -101,-35 -33,-64 64,-27 96,-52 125,-92 35,-48 75,-2 39,49 -41,57 -80,85 -131,107z"/>
  <path class="fil5" d="M2565 4110c-19,-1 -33,-17 -32,-36 1,-19 17,-33 36,-32 0,0 124,6 162,-96 7,-17 26,-26 44,-20 18,7 27,27 20,44 -56,149 -230,140 -230,140z"/>
  <path class="fil5" d="M2617 3940c-18,6 -38,-3 -44,-20 -7,-18 2,-38 19,-44 1,0 95,-38 88,-234 -1,-19 14,-35 33,-35 19,-1 35,14 36,33 8,243 -132,299 -132,300z"/>
  <path class="fil5" d="M4143 4844c50,99 68,382 -71,422 -68,20 -134,-3 -174,-27 -113,19 -151,29 -211,26 -426,97 -698,-219 -440,-545 48,-62 109,-107 131,-121 56,-34 -14,37 -66,120 -213,336 47,568 277,463 61,49 164,73 221,29 37,-10 -8,-75 8,-97 25,-47 39,-99 42,-165 19,-14 57,-29 90,-47 1,30 -21,78 -37,110 -61,128 43,198 117,169 120,-47 117,-265 89,-357 -11,-37 3,-24 24,20z"/>
  <path class="fil5" d="M4039 4521c7,-48 85,-30 47,8 -53,52 3,99 54,127 98,53 3,69 -32,38 -48,-44 -75,-130 -69,-173z"/>
  <path class="fil5" d="M2993 4763c-7,24 -50,6 -35,-55 14,-52 84,-83 160,-79 26,1 26,26 0,28 -56,3 -112,62 -125,106z"/>
  <path class="fil5" d="M3162 4663c31,-13 35,1 10,17 -131,111 -89,253 38,278 1,28 9,79 4,107 -249,-83 -237,-329 -52,-402z"/>
  <path class="fil5" d="M3062 5063c17,7 17,45 -22,36 -158,-33 -218,-128 -228,-222 -3,-23 19,-42 38,-2 45,91 117,144 212,188z"/>
  <path class="fil5" d="M2942 4877c10,27 -13,32 -47,1 -48,-42 -48,-133 -16,-180 21,-31 53,-20 46,13 -12,62 -13,86 17,166z"/>
  <path class="fil5" d="M3715 4729c23,-88 41,-51 35,-31 -35,134 129,419 94,511 -29,76 -162,100 -235,78 -94,-28 -143,-192 -119,-336 6,-31 31,-27 34,44 11,248 215,246 241,168 19,-59 -99,-245 -50,-434z"/>
  <path class="fil5" d="M4686 2713c-9,-17 -2,-38 14,-47 17,-8 38,-2 47,15 0,1 146,240 126,519 -2,19 -18,33 -37,32 -19,-1 -33,-18 -32,-37 19,-259 -117,-481 -118,-482z"/>
  <path class="fil5" d="M2496 3046c3,-19 -10,-36 -28,-39 -19,-3 -37,10 -40,28 0,1 -27,212 79,467l58 -37c-92,-232 -69,-418 -69,-419z"/>
  <path class="fil5" d="M2642 2634c17,9 84,66 48,168 -8,24 -21,37 -23,-8 -2,-53 -57,-82 -57,-82l32 -78z"/>
  <path class="fil5" d="M4075 4688c-4,-15 1,-29 8,-15 23,45 51,66 107,89 58,24 -8,69 -39,48 -43,-31 -64,-81 -76,-122z"/>
  <path class="fil5" d="M4126 4801c-9,-13 -23,-16 -12,8 24,52 49,80 57,108 13,41 65,2 27,-58 -18,-28 -54,-32 -72,-58z"/>
  <path class="fil5" d="M3986 4832c0,-17 0,-31 -9,-16 -31,49 -75,89 -142,122 -76,38 150,71 151,-106z"/>
  <path class="fil5" d="M4011 4726c1,-12 1,-23 -6,-11 -22,39 -52,76 -100,101 -34,18 7,26 48,3 48,-27 57,-62 58,-93z"/>
  <path class="fil6" d="M3170 2897c-169,31 -300,92 -381,179 -72,77 -103,177 -81,295l2 9c25,129 85,261 184,350 97,88 234,136 416,102l8 -1c167,-33 278,-120 346,-229 86,-141 104,-318 77,-464 -22,-119 -81,-193 -170,-230 -98,-41 -234,-42 -401,-11zm1332 -382c181,-33 340,-19 461,40 124,61 207,167 235,318l2 12c24,141 13,300 -56,435 -71,139 -201,251 -412,289l-12 3c-103,17 -197,10 -279,-14 6,-15 59,-27 55,-43 -25,-114 -229,-106 -289,-93 -103,-97 -171,-227 -204,-353l-124 23c27,172 3,376 -99,541 -86,140 -226,251 -435,292 -3,0 -7,2 -10,2 -231,42 -406,-21 -532,-135 -74,-66 -129,-149 -169,-238l-79 50c-48,31 -60,64 -56,102 6,64 56,121 -5,149 -56,26 -93,-20 -108,-74 -34,-121 -16,-221 96,-292l106 -67c-5,-19 -9,-37 -13,-56 0,-3 -2,-7 -2,-10 -30,-164 14,-304 116,-414 101,-108 258,-183 456,-220 193,-35 355,-32 479,19 101,42 175,113 219,219l140 -26c-4,-117 38,-211 116,-286 90,-85 228,-140 403,-173zm401 163c-95,-46 -225,-56 -376,-28 -150,28 -264,72 -333,137 -62,59 -87,139 -68,244 24,131 95,274 213,363 90,70 210,107 359,82l10 -1c163,-30 261,-114 314,-217 54,-106 63,-235 43,-351l-2 -10c-19,-105 -76,-178 -160,-219z"/>
  <path class="fil7" d="M4615 2549c16,-1 30,1 51,0 10,0 10,-7 22,-7 36,1 33,27 1,26 -12,0 -19,-7 -29,-7 -21,-1 -26,4 -42,5 -35,2 -44,-15 -3,-17zm189 -1c10,2 23,9 35,12 33,7 69,13 97,24 40,16 25,58 -1,46 -27,-12 -68,-36 -98,-43 -12,-2 -25,1 -37,-1 -36,-5 -29,-42 4,-38zm233 107c26,24 -10,53 -34,27 -23,-27 1,-58 34,-27z"/>
  <path class="fil7" d="M3687 2935c-8,-10 -23,-41 -34,-50 -10,-7 -29,-7 -42,-16 -19,-14 -2,-43 21,-32 15,7 11,13 33,24 9,5 44,19 63,32 42,30 0,89 -41,42zm-167 -97c-30,-13 -22,-55 15,-43 46,14 26,60 -15,43z"/>
  <path class="fil5" d="M3325 3491c-2,19 -19,33 -38,31 -18,-2 -32,-19 -30,-38 0,-1 37,-423 305,-122 13,14 12,36 -2,48 -14,13 -36,12 -49,-2 -162,-183 -186,83 -186,83z"/>
  <path class="fil5" d="M4382 3199c-2,19 -19,33 -37,31 -19,-2 -33,-18 -31,-37 0,-1 34,-383 277,-111 12,14 11,36 -3,49 -14,12 -36,11 -49,-3 -137,-154 -157,71 -157,71z"/>
  <path class="fil8" d="M4496 3568c-26,102 -100,195 -176,227 -68,29 -190,-7 -298,-95 -168,-137 522,-318 474,-132z"/>
 </g>
</svg>
