<?xml version="1.0" encoding="utf-8"?>
<!-- Generator: Adobe Illustrator 16.0.0, SVG Export Plug-In . SVG Version: 6.00 Build 0)  -->
<!DOCTYPE svg PUBLIC "-//W3C//DTD SVG 1.1//EN" "http://www.w3.org/Graphics/SVG/1.1/DTD/svg11.dtd">
<svg version="1.1" id="Layer_1" xmlns="http://www.w3.org/2000/svg" xmlns:xlink="http://www.w3.org/1999/xlink" x="0px" y="0px"
	 width="595.275px" height="841.89px" viewBox="0 0 595.275 841.89" enable-background="new 0 0 595.275 841.89"
	 xml:space="preserve">
<g>
	<path id="text" fill="#04BAB4" d="M195.128,535.474h-0.38l0.189-2.049h0.38c0,1-0.126,1.493-0.38,1.493l0.191,0.364V535.474z
		 M195.128,532.504c0-0.286,0.063-0.54,0.189-0.746l-0.38-0.19c0,0.254-0.063,0.365-0.189,0.365
		c0.125,0.253,0.189,0.444,0.189,0.571H195.128z M197.176,529.329h-0.19c0-0.112-0.063-0.176-0.191-0.176
		c0.253-0.937,0.381-1.491,0.381-1.684c0.364,0,0.555,0.129,0.555,0.382C197.479,527.852,197.302,528.344,197.176,529.329z
		 M199.224,524.501c-0.38,0-0.571-0.126-0.571-0.38c0.508-0.271,0.746-0.778,0.746-1.477h0.571
		C199.715,523.883,199.462,524.501,199.224,524.501z M199.637,521.421v-0.745h0.365v0.382
		C200.002,521.312,199.891,521.421,199.637,521.421z M199.78,518.913v-0.556h-0.382v0.556H199.78z M199.589,518.167v-0.747
		c-0.254,0.032-0.365,0.159-0.365,0.382C199.255,518.04,199.367,518.167,199.589,518.167z M196.986,516.309
		c0-0.127,0.062-0.302,0.19-0.556v-0.364h-0.19c0,0.27-0.063,0.523-0.191,0.731v0.188H196.986z M154.007,515.389h-0.366v-0.192
		c0.175-0.491,0.429-0.744,0.731-0.744v0.189C154.134,514.943,154.007,515.196,154.007,515.389z M201.082,514.071v-0.557h-0.191
		c0,0.127-0.063,0.318-0.191,0.557H201.082z M194.572,514.071c0-0.111,0.063-0.175,0.176-0.175
		c-0.113-0.255-0.176-0.444-0.176-0.556h-0.191c0,0.111-0.063,0.301-0.189,0.556L194.572,514.071z M195.128,512.593l0.189-0.38
		h-0.569C194.779,512.468,194.906,512.593,195.128,512.593z M195.635,511.054l0.191-0.746c-0.095,0-0.142-0.031-0.142-0.095
		l0.047-0.096c0.191,0,0.271-0.175,0.271-0.557h-0.367v0.557l-0.364-0.175l0.174,1.111H195.635z M203.495,510.355v-0.555h0.191
		l0.365,0.19v-0.557c-0.111,0-0.302-0.064-0.556-0.19c-0.127,0.618-0.189,0.985-0.189,1.111H203.495z M201.272,510.546
		c0-0.255,0.047-0.382,0.173-0.382l-0.173-0.363c0.111-0.255,0.173-0.493,0.173-0.747h-0.173c-0.127,0.492-0.19,1-0.19,1.492
		H201.272z M199.224,509.991c0-0.255,0.063-0.383,0.174-0.383c-0.111-0.238-0.174-0.428-0.174-0.555h-0.191v0.381h0.191
		l-0.191,0.366v0.19H199.224z M195.874,508.862v-0.747c-0.253,0.033-0.38,0.16-0.38,0.383
		C195.524,508.752,195.651,508.862,195.874,508.862z M199.589,508.498c0.254,0,0.38-0.128,0.38-0.383v-0.363h-0.38V508.498z
		 M196.621,508.498c0-0.223,0.111-0.588,0.365-1.112h-0.556v1.112H196.621z M156.61,507.386c0.253,0,0.365-0.127,0.365-0.38
		l-0.365-0.19V507.386z M204.798,507.006c0-0.492,0.126-0.747,0.38-0.747c0,0.126,0.063,0.191,0.175,0.191v-0.747l0.381,0.19
		l0.191-0.38v-0.175h-0.191l-0.556,0.364v-0.364h-0.19c0,0.491-0.127,0.92-0.382,1.301v0.366H204.798z M197.731,505.894
		c0-0.254,0.127-0.38,0.365-0.38v-0.557l-0.365,0.191c0-0.128-0.063-0.191-0.191-0.191c0,0.127-0.062,0.191-0.189,0.191
		c0.127,0.222,0.189,0.46,0.189,0.745H197.731z M196.795,506.64c0-0.158,0.191-0.777,0.556-1.856v-0.191h-0.175
		c-0.128,0.46-0.381,1.017-0.747,1.667v0.381H196.795z M202.002,506.084c0.254-0.603,0.381-1.222,0.381-1.873l-0.381-0.175
		c0,0.921-0.109,1.541-0.364,1.857L202.002,506.084z M196.795,504.957l-0.174-0.921h-0.191c0,0.271-0.063,0.524-0.189,0.747
		l0.38,0.174H196.795z M158.657,504.592c0-0.254,0.128-0.381,0.367-0.381v-0.364h-0.367c0,0.125-0.063,0.302-0.189,0.556v0.189
		H158.657z M198.477,504.036v-0.381c-0.38,0-0.555,0.128-0.555,0.381H198.477z M207.035,502.91c0.128-0.493,0.192-0.795,0.192-0.923
		h-0.192c-0.126,0.492-0.19,0.811-0.19,0.923H207.035z M198.653,503.479c0-0.222,0.126-0.715,0.38-1.492
		c-0.158,0-0.413,0.303-0.746,0.923C198.288,503.29,198.415,503.479,198.653,503.479z M159.77,501.987l0.38-0.189
		c-0.127-0.223-0.189-0.46-0.189-0.747h-0.365C159.706,501.272,159.77,501.575,159.77,501.987z M205.925,501.798l0.365-1.304h-0.365
		c0,0.493-0.127,0.938-0.381,1.304H205.925z M207.591,500.861c0.254,0,0.367-0.175,0.367-0.556
		C207.719,500.336,207.591,500.527,207.591,500.861z M200.7,500.306c0.254,0,0.382-0.175,0.382-0.556
		C200.828,499.78,200.7,499.972,200.7,500.306z M204.051,500.131h-0.365v-0.191c0.19-0.491,0.365-0.745,0.556-0.745v0.364
		C204.114,499.813,204.051,500.005,204.051,500.131z M161.453,499.003l0.746-1.112v-0.189c-0.16,0-0.477,0.444-0.938,1.302H161.453z
		 M201.272,497.701h-0.381v-0.556c0.031-0.254,0.223-0.364,0.555-0.364L201.272,497.701z M204.242,495.479l0.191-0.937l-0.382-0.19
		c0,0.127-0.063,0.19-0.175,0.19c0.111,0.222,0.175,0.523,0.175,0.937H204.242z M206.845,495.843
		c0.682-0.649,1.047-1.269,1.113-1.856l-0.367,0.19l-0.364-0.19C206.972,495.099,206.845,495.717,206.845,495.843z M204.605,494.352
		l0.192-0.365v-0.191c-0.238,0.127-0.43,0.191-0.556,0.191C204.272,494.224,204.4,494.352,204.605,494.352z M199.398,501.606
		l0.382-1.112l0.365,0.192c0-0.254,0.191-0.747,0.555-1.492h0.382v0.364l0.364-0.175l-0.173-0.381l0.173-0.365v-0.19h-0.173v0.382
		h-0.19v-0.571c0.46,0,0.778-0.302,0.92-0.922c-0.109-0.223-0.173-0.476-0.173-0.747c0.173,0,0.428-0.254,0.746-0.746l-0.191-0.364
		c0.366-0.031,0.684-0.413,0.922-1.127h0.189v-0.175h-0.189c-0.493,0.238-0.858,0.365-1.112,0.365l0.382-0.937
		c-0.127,0-0.191-0.049-0.191-0.176l-0.938,0.557c0.129,0.237,0.192,0.429,0.192,0.556c-0.366,1-0.811,1.492-1.302,1.492v0.175
		c0.364,0,0.555,0.126,0.555,0.38l-0.365,0.192c0-0.128-0.063-0.192-0.189-0.192c-0.287,1.144-0.651,1.953-1.112,2.414l0.174,0.381
		c-0.111,0.621-0.238,0.922-0.365,0.922c0,0.127,0.063,0.188,0.191,0.188c-0.127,0.62-0.191,1.002-0.191,1.112H199.398z
		 M204.433,493.605c0.173,0,0.365-0.176,0.555-0.556h-0.555V493.605z M206.845,493.24h-0.19v-0.557c0-0.19,0.19-0.381,0.572-0.555
		h0.174C207.243,492.875,207.067,493.24,206.845,493.24z M202.938,493.986c0.367,0,0.556-0.557,0.556-1.684h-0.189L202.938,493.986z
		 M170.565,491.573c0.254-0.129,0.43-0.19,0.556-0.19v-0.191h-0.556l-0.191,0.382H170.565z M204.051,491.383v-0.557h-0.365
		c0.127,0.238,0.19,0.429,0.19,0.557H204.051z M212.609,491.748c0-0.128-0.065-0.175-0.176-0.175l0.176-0.382l-0.176-0.365
		l0.556-0.38v0.937C212.99,491.62,212.863,491.748,212.609,491.748z M207.401,490.826h-0.366v-0.571
		c0.032-0.238,0.16-0.365,0.366-0.365V490.826z M213.546,490.446c0-0.238-0.128-0.365-0.367-0.365c0,0.127-0.063,0.174-0.189,0.174
		v-0.921h0.365c0,0.492,0.126,0.747,0.38,0.747c0-0.128,0.063-0.191,0.175-0.191C213.91,490.255,213.799,490.446,213.546,490.446z
		 M211.497,489.89h-0.365c0-0.365,0.111-0.556,0.365-0.556V489.89z M210.005,488.777c0-0.284,0.063-0.523,0.19-0.745h-0.365v0.745
		H210.005z M202.575,489.7c0.492-0.208,0.73-0.779,0.73-1.668h-0.176C203.129,488.254,202.938,488.81,202.575,489.7z
		 M214.102,488.032c-0.238,0-0.367-0.128-0.367-0.381v-0.366h0.367V488.032z M213.91,488.953h-0.731c0-0.619-0.126-0.921-0.38-0.921
		c0.191-0.493,0.38-0.747,0.556-0.747c0,0.492,0.191,0.747,0.555,0.747c0,0.127-0.046,0.19-0.175,0.19
		C213.864,488.461,213.91,488.715,213.91,488.953z M209.083,487.841v-0.189l-0.38,0.189h-0.176v-0.189
		c0.176-0.492,0.367-0.73,0.556-0.73c0.367,0,0.556,0.111,0.556,0.364C209.639,487.478,209.45,487.651,209.083,487.841z
		 M204.051,487.285c0-0.284,0.063-0.522,0.191-0.746h-0.366v0.746H204.051z M207.035,485.984v-0.556
		c-0.252,0.127-0.444,0.189-0.555,0.189v0.366H207.035z M205.353,484.492c0.16,0,0.414-0.367,0.746-1.112v-0.555h-0.173
		c-0.509,0.856-0.747,1.429-0.747,1.667H205.353z M204.051,490.637c0-0.907,0.317-1.399,0.937-1.493v-0.366
		c-0.253-0.316-0.382-0.555-0.382-0.745c0.128-0.255,0.192-0.43,0.192-0.555h0.38v0.174c-0.126,0.253-0.19,0.444-0.19,0.571h0.365
		c0.381-1.397,0.874-2.524,1.492-3.351c0-0.285,0.318-0.969,0.937-2.047l-0.38-0.192c0,0.366-0.238,0.556-0.747,0.556l0.19,0.382
		c-0.396,0-0.778,0.684-1.111,2.048h-0.19l0.19,0.366c-0.652,0.523-1.158,1.271-1.492,2.238h-0.366
		c0.111,0.238,0.175,0.429,0.175,0.555l-0.175,0.366l0.175,0.381c-0.111,0.62-0.175,0.983-0.175,1.112H204.051z M199.97,507.561
		c0.238-0.095,0.62-0.889,1.112-2.412h0.19v0.555h0.173c0-0.27,0.065-0.524,0.192-0.746v-0.174h-0.192v0.365h-0.173
		c0-0.905,0.111-1.589,0.366-2.049c-0.254-0.127-0.431-0.189-0.556-0.189c0.364-0.589,0.556-0.953,0.556-1.112
		c0.492,0,0.745,0.127,0.745,0.365c-0.127,0-0.19,0.063-0.19,0.19c0.127,0,0.19,0.063,0.19,0.189c-0.19,0-0.381,0.191-0.555,0.557
		c0,0.349,0.302,0.65,0.92,0.937l0.189-0.381c-0.253-0.302-0.364-0.492-0.364-0.556c0.078-0.984,0.271-1.493,0.555-1.493
		c0.238,0.033,0.365,0.159,0.365,0.381l-0.189,0.366h0.38v-0.556c2.254-5.827,3.557-8.748,3.905-8.748v0.38h0.556
		c0.38-1.127,0.747-1.92,1.111-2.429v-0.175l-1.3-0.38c0.348-1.493,0.649-2.224,0.936-2.224l-0.19,1.478
		c0.19-0.145,0.747-1.334,1.683-3.526l-0.381-0.189c0-0.492,0.318-0.747,0.938-0.747v-0.556c-0.381,0-0.556-0.318-0.556-0.937
		c0-0.365,0.175-0.858,0.556-1.477h-0.556c0,0.856-0.191,1.302-0.556,1.302c0-0.127-0.063-0.19-0.191-0.19
		c-0.809,2.318-1.429,3.747-1.858,4.271h-0.19c0.128-0.619,0.19-0.984,0.19-1.112c-0.587,0-1.031,0.938-1.302,2.795
		c-0.746,0.619-1.127,1.112-1.127,1.492h-0.175l-0.572-0.38c0,0.284-0.046,0.521-0.173,0.745h0.92l0.381-0.937
		c0.238,0.031,0.364,0.158,0.364,0.382l-0.364,0.746c0.126,0.237,0.191,0.429,0.191,0.555c-0.191,0-0.445,0.556-0.747,1.668
		l0.366,0.189c-0.127,0.747-0.253,1.111-0.366,1.111c0.112,0.254,0.175,0.509,0.175,0.747c-0.493,0.443-0.793,1-0.92,1.683
		c0.127,0.208,0.173,0.462,0.173,0.746h-0.364l-0.366-1.493l-0.381,0.192l-0.189-0.383v-0.189h0.38v-0.556h-0.38l-1.667,4.652
		l0.364,0.188c0-0.396,0.318-0.776,0.937-1.11c0.254,0.032,0.367,0.207,0.367,0.556c-0.398,0.985-0.714,1.493-0.922,1.493
		c0-0.128-0.063-0.191-0.19-0.191l0.19-0.38v-0.175l-0.555,0.364c0-0.126-0.065-0.189-0.19-0.189v0.189
		c0.125,0.254,0.19,0.445,0.19,0.556l-0.383-0.174c-0.491,1.365-0.746,2.096-0.746,2.223c0.127,0.255,0.191,0.444,0.191,0.556
		C200.271,505.275,199.97,506.385,199.97,507.561z M211.132,482.825c0.144,0,0.396-0.382,0.747-1.129
		C211.497,481.696,211.243,482.078,211.132,482.825z M206.29,482.078c0.189,0,0.364-0.253,0.555-0.746v-0.19h-0.19
		c0,0.19-0.11,0.445-0.364,0.745V482.078z M216.149,483.745l-0.191-0.365c0.254-0.493,0.444-0.747,0.556-0.747l-0.174-0.364v-0.19
		c0.491,0,0.809-0.491,0.92-1.493h0.381C217.642,481.49,217.149,482.539,216.149,483.745z M214.292,481.523
		c0-0.382,0.127-0.557,0.365-0.557v-0.382h-0.365c0,0.128-0.063,0.318-0.189,0.557v0.382H214.292z M211.497,480.967
		c0.62-0.57,0.937-1.127,0.937-1.683h-0.191L211.497,480.967z M208.147,482.443c0.38-1.396,0.873-2.382,1.492-2.969v-0.382
		c-1.112,1.19-1.682,2.176-1.682,2.985c-0.302-0.253-0.493-0.382-0.557-0.382v0.747c0.126,0,0.19-0.063,0.19-0.175l0.367,0.175
		H208.147z M214.848,480.03c0.493-0.254,0.747-0.619,0.747-1.11C215.102,478.92,214.848,479.284,214.848,480.03z M210.005,478.92
		l1.127-2.431l-0.382-0.175c0,0.428-0.238,0.921-0.745,1.477l-0.366,0.556v0.573H210.005z M211.307,476.124
		c0-0.254-0.175-0.38-0.557-0.38C210.783,475.998,210.972,476.124,211.307,476.124z M216.34,476.124
		c0.174,0,0.364-0.189,0.555-0.557v-0.555h-0.191C216.466,475.664,216.34,476.028,216.34,476.124z M221.167,470.916v-0.746h0.38
		v0.365C221.547,470.79,221.42,470.916,221.167,470.916z M215.084,540.68h-0.38c0.096-0.745,0.286-1.109,0.556-1.109
		c0.254,0.03,0.38,0.222,0.38,0.555C215.26,540.125,215.084,540.315,215.084,540.68z M215.831,539.57h-0.381
		c0-0.191,0.254-0.383,0.747-0.557C216.197,539.379,216.069,539.57,215.831,539.57z M207.639,542.729c0.159,0,0.586-1.238,1.3-3.715
		v-0.19h-0.189C208.003,540.712,207.639,542.014,207.639,542.729z M207.258,541.235c0-0.269,0.253-1.078,0.746-2.412v-0.191h-0.174
		c-0.508,1.62-0.746,2.494-0.746,2.604H207.258z M216.388,538.823v-0.557c0.238,0.033,0.365,0.16,0.365,0.365L216.388,538.823z
		 M212.655,538.632l-0.174-0.365c0.271-0.745,0.525-1.11,0.73-1.11l0.38,0.174C213.275,538.142,212.974,538.568,212.655,538.632z
		 M208.56,537.33c0.016-0.11,0.063-0.301,0.191-0.556v-0.19h-0.191c0.016,0.128-0.047,0.317-0.175,0.572v0.174H208.56z
		 M209.687,536.967c0.238,0,0.366-0.318,0.366-0.938h-0.175L209.687,536.967z M213.401,536.584c0-0.237-0.19-0.364-0.555-0.364
		c0-0.19,0.252-0.429,0.745-0.746c0.254,0.031,0.366,0.158,0.366,0.381C213.958,536.156,213.784,536.41,213.401,536.584z
		 M214.704,537.33v-0.174c0.587-1.255,1.207-1.874,1.856-1.874C216.292,535.901,215.673,536.584,214.704,537.33z M217.689,535.854
		l-0.191-0.381c0.031-0.238,0.223-0.366,0.555-0.366v0.366C218.053,535.727,217.928,535.854,217.689,535.854z M216.197,534.918
		h-0.191c0-0.318,0.255-0.62,0.747-0.937v0.189C216.561,534.663,216.388,534.918,216.197,534.918z M217.133,533.251l-0.191-0.382
		c0.238-0.127,0.493-0.19,0.747-0.19C217.689,532.869,217.499,533.06,217.133,533.251z M216.197,537.33h-0.747v-0.556
		c0.651-0.095,1.334-1.207,2.049-3.35c0.365,0,0.555-0.237,0.555-0.746h0.191l0.556,0.381l0.746-0.556
		c0,0.11,0.065,0.175,0.191,0.175c-0.222,0.619-0.539,0.937-0.937,0.937l-0.937-0.19c0,0.412-0.049,0.715-0.174,0.937h0.174
		l0.571-0.38c0.238,0.031,0.365,0.158,0.365,0.38c-1.079,0.366-1.953,1.302-2.604,2.795V537.33z M215.641,533.425
		c0-0.19,0.127-0.429,0.365-0.746v-0.175c-0.302,0.238-0.556,0.365-0.746,0.365v0.556H215.641z M214.895,532.504v-0.382h-0.191
		c-0.238,0.129-0.429,0.192-0.556,0.192v0.189H214.895z M214.895,531.567c0.491-0.19,0.746-0.429,0.746-0.745
		c-0.318,0-0.618,0.253-0.937,0.745H214.895z M216.942,531.758c0.158,0,0.396-0.381,0.747-1.128v-0.175
		c-0.16,0-0.414,0.303-0.747,0.922V531.758z M216.561,531.758c0-0.096,0.129-0.523,0.382-1.303c-0.158,0-0.413,0.303-0.746,0.922
		v0.381H216.561z M215.641,530.63c0.238,0,0.365-0.11,0.365-0.364l-0.365-0.19c-0.254,0.032-0.38,0.158-0.38,0.38L215.641,530.63z
		 M212.292,531.377c0.253,0,0.428-0.365,0.555-1.111v-0.19h-0.191L212.292,531.377z M218.99,529.519v-0.365
		c-0.253,0.127-0.444,0.176-0.555,0.176v0.189H218.99z M219.546,527.297v-0.572h-0.38v0.572H219.546z M219.356,526.17
		c0.254-0.128,0.444-0.192,0.556-0.192v-0.364C219.546,525.613,219.356,525.805,219.356,526.17z M228.47,510.546h-0.556
		c-2.223-1.65-3.349-3.572-3.349-5.763c0.808-3.971,2.3-7.018,4.476-9.13l-0.191-0.921c0-0.254,0.191-0.381,0.556-0.381
		c3.001,0,4.987,0.619,5.954,1.857l0.191,0.937c-0.127,0-0.191,0.063-0.191,0.19c0.316,0,0.493,0.491,0.555,1.493
		c-0.238,0.015-0.364,0.205-0.364,0.555c0.125,0,0.302,0.064,0.556,0.175c-0.97,2.588-1.652,3.89-2.049,3.921v0.923
		c-0.62,0.586-0.937,1.079-0.937,1.491l-1.859,2.969h-0.189v-0.555h-0.175c0,1.127-0.62,1.684-1.858,1.684h-0.571V510.546z
		 M242.949,548.684v-0.19c-0.159,0-0.524-0.176-1.111-0.557h-0.192v0.19c0.192,0,0.556,0.19,1.112,0.557H242.949z M240.901,549.063
		v-0.19c-0.287,0-1.271-0.556-2.969-1.682v0.189c1.27,0.905,2.191,1.461,2.777,1.683H240.901z M239.599,546.635
		c-0.366,0-0.555-0.127-0.555-0.365C239.409,546.27,239.599,546.396,239.599,546.635z M241.456,544.031
		c-0.365,0-0.555-0.128-0.555-0.366v-0.746c0.255,0,0.493,0.063,0.745,0.19c0.128-0.253,0.192-0.444,0.192-0.57h0.174v0.57
		C241.678,543.109,241.487,543.412,241.456,544.031z M241.456,541.809h-0.19c0-0.508,0.128-0.746,0.38-0.746
		c0.254,0.031,0.366,0.143,0.366,0.364L241.456,541.809z M244.616,539.57c0.253,0,0.381-0.191,0.381-0.557
		C244.743,539.045,244.616,539.22,244.616,539.57z M243.694,538.823c0.238,0,0.367-0.255,0.367-0.746h-0.176L243.694,538.823z
		 M237.741,538.077h-0.189l-0.191-1.303l0.38-0.19c0,0.128,0.063,0.19,0.192,0.19c0-0.126,0.046-0.19,0.173-0.19
		c0,0.128,0.065,0.19,0.191,0.19C238.138,537.648,237.964,538.077,237.741,538.077z M240.345,536.584h-0.381v-0.174
		c0.191-0.509,0.381-0.747,0.572-0.747l0.173,0.366C240.471,536.029,240.345,536.22,240.345,536.584z M237.933,535.474h-0.192
		c0-0.191,0.192-0.366,0.556-0.556C238.297,535.282,238.171,535.474,237.933,535.474z M245.743,536.967
		c0-0.224,0.302-1.081,0.921-2.605c-0.144,0-0.588,0.874-1.303,2.605H245.743z M238.853,534.918h-0.556
		c0.096-0.747,0.285-1.112,0.556-1.112h0.38v0.176C238.979,534.298,238.853,534.6,238.853,534.918z M239.964,531.758h-0.365
		l0.19-0.936h0.366l0.19,0.745L239.964,531.758z M240.901,547.761c-0.874-0.618-1.303-0.998-1.303-1.126h0.19
		c1.367,0.253,2.049,0.557,2.049,0.937h0.174v-1.111l-0.174-0.381h0.364c0,1,0.381,1.492,1.112,1.492l-0.176-0.38l0.176-0.367
		c-0.365-0.904-0.556-1.651-0.556-2.238l0.38-0.174c-0.253-0.571-0.38-1.366-0.38-2.43h-0.366c0,0.382-0.125,0.557-0.38,0.557
		v-0.367c0.508-1.109,0.746-1.92,0.746-2.412c-0.62-0.683-0.92-1.366-0.92-2.048h-0.192v0.365h-0.38
		c0.128-0.747,0.318-1.11,0.572-1.11c0,0.126,0.063,0.189,0.174,0.189c0-1.589,0.81-3.764,2.429-6.526
		c0-0.555,0.175-1.048,0.556-1.477v-0.381c-1,0.843-1.985,2.271-2.985,4.287c-0.747,1.491-1.238,2.223-1.476,2.223
		c0-0.364,0.111-0.555,0.365-0.555l-0.192-0.366c1.096-2.018,1.954-3.811,2.605-5.398c-0.111-0.254-0.176-0.428-0.176-0.556
		c0.208,0,0.589-0.809,1.112-2.43c-0.318,0-0.809,0.446-1.492,1.319c0.127,0,0.191,0.047,0.191,0.173
		c-0.651,0-1.207,0.447-1.684,1.303c-0.238-0.127-0.428-0.174-0.556-0.174l-1.856,3.523c-0.747,2.049-1.367,3.414-1.858,4.098
		c0,0.285,0.063,0.523,0.191,0.747c-0.127,0.253-0.191,0.427-0.191,0.555l0.191,0.937h-0.382v0.174l0.191,0.382
		c-0.253,0-0.429,0.365-0.555,1.111c0.126,0.254,0.19,0.429,0.19,0.555h-0.19l0.19,0.383c0,1.238-0.127,1.856-0.38,1.856
		c0.714,2.238,2.08,3.844,4.096,4.842H240.901z M279.833,546.46c0.334-1.747,1.016-3.604,2.048-5.588
		c0.364-1.302,0.555-2.049,0.555-2.24c-0.158,0-0.587,0.81-1.302,2.431c-0.397,0-1.032,1.048-1.858,3.158h0.366v-0.556h0.38
		c0,0.429-0.189,1.176-0.569,2.223c0.125,0.255,0.189,0.445,0.189,0.572H279.833z M278.149,540.872c0.254,0,0.38-0.128,0.38-0.365
		c-0.126,0-0.189-0.065-0.189-0.191c0.286,0,0.587-0.492,0.936-1.492c0-0.255-0.125-0.365-0.38-0.365
		c0,0.239-0.302,0.794-0.921,1.667c0,0.287-0.064,0.524-0.191,0.747H278.149z M280.388,541.235c0.682-1.174,1.111-2.222,1.3-3.158
		c-0.189,0-0.682,1-1.492,2.985v0.173H280.388z M279.276,538.267c0-0.189,0.127-0.428,0.366-0.745h-0.366
		c0,0.127-0.063,0.317-0.19,0.556v0.189H279.276z M280.578,535.663c0-0.127,0.065-0.317,0.175-0.556v-0.189h-0.175
		c0,0.126-0.063,0.317-0.189,0.556v0.189H280.578z M281.688,535.474c0.287,0,0.46-0.303,0.556-0.923l-0.364-0.189L281.688,535.474z
		 M281.881,537.712c0.238-0.063,0.856-1.176,1.856-3.351v-0.38C283.548,533.981,282.928,535.235,281.881,537.712z M279.276,536.774
		c0.176,0,0.366-0.19,0.557-0.555l-0.38-0.19c0.618-0.62,0.936-1.24,0.936-1.858c0.254,0,0.364-0.302,0.364-0.92
		c-0.619,0-1.047,0.794-1.3,2.412c-0.493,0-0.732,0.302-0.732,0.921l0.366-0.174v0.364H279.276z M283.182,533.425
		c0.238,0,0.366-0.174,0.366-0.556C283.31,532.9,283.182,533.091,283.182,533.425z M282.436,533.806
		c0.254,0,0.365-0.127,0.365-0.381v-0.365c-0.269,0-0.523-0.063-0.745-0.19l-0.175,0.382v0.174
		C282.245,533.425,282.436,533.553,282.436,533.806z M285.977,531.202h-0.382c0-0.38,0.127-0.572,0.382-0.572V531.202z
		 M282.801,531.933c0-0.303,0.381-0.684,1.127-1.11v-0.192c-0.127,0-0.316-0.046-0.556-0.175l-0.746,1.303v0.175H282.801z
		 M283.182,526.55l0.19-0.937c-0.349,0.032-0.602,0.35-0.746,0.937H283.182z M284.104,529.519c0.317-0.873,0.682-1.302,1.126-1.302
		v-0.92c0-0.19,0.175-0.382,0.556-0.572v0.19c-0.127,0.255-0.191,0.429-0.191,0.555c0.413,0,0.778-0.618,1.111-1.856v-0.365h-0.173
		c0,0.175-0.192,0.62-0.556,1.302h-0.191l-0.381-0.19c-0.397,0.984-0.824,1.795-1.301,2.413c-0.112,0.255-0.176,0.508-0.176,0.746
		H284.104z M283.548,525.423c0.253,0,0.38-0.175,0.38-0.557C283.674,524.898,283.548,525.09,283.548,525.423z M283.182,525.058
		c0.238,0,0.366-0.191,0.366-0.557C283.31,524.533,283.182,524.708,283.182,525.058z M283.928,524.312
		c0.493-0.254,0.746-0.62,0.746-1.111c-0.348,0-0.649,0.364-0.937,1.111H283.928z M287.088,524.866l0.746-2.047
		c-0.413,0-0.778,0.684-1.127,2.047H287.088z M287.833,522.645c0.238,0,0.43-0.38,0.556-1.127
		C288.135,521.518,287.962,521.897,287.833,522.645z M284.104,522.454c0.506-0.127,0.745-0.493,0.745-1.112v-0.381h-0.175
		c0,0.255-0.318,0.747-0.937,1.493H284.104z M285.405,519.659c0-0.19,0.19-0.429,0.572-0.746c-0.318,0-0.572,0.191-0.747,0.556v0.19
		H285.405z M286.533,517.992c0-0.222,0.125-0.604,0.364-1.127l-0.364-0.176c-0.382,0.556-0.556,0.985-0.556,1.303H286.533z
		 M281.688,517.42l0.192-0.73H281.5v0.73H281.688z M288.39,517.42l0.365-1.3h-0.174c0,0.125-0.254,0.507-0.747,1.125
		C287.962,517.245,288.135,517.311,288.39,517.42z M287.644,515.196c0.253-0.316,0.365-0.491,0.365-0.555h-0.365
		c0,0.111-0.065,0.302-0.191,0.555H287.644z M283.182,513.705c0.238,0,0.492-0.49,0.747-1.492v-0.175h-0.191L283.182,513.705z
		 M289.326,513.149c0.556,0,1.303-1.063,2.223-3.158c-0.493-0.129-0.985-0.19-1.493-0.19v-0.366
		c-0.492,0.333-0.92,1.143-1.302,2.413c-0.365,0-0.555,0.127-0.555,0.365v0.38c0.38,0,0.555,0.129,0.555,0.367
		c0.253,0,0.382-0.192,0.382-0.557h-0.382c0-0.317,0.191-0.556,0.571-0.746h0.556c0,0.317-0.189,0.746-0.556,1.303V513.149z
		 M296.758,507.752v-0.366c0.443-0.746,0.809-1.127,1.126-1.127v0.191C297.265,507.322,296.883,507.752,296.758,507.752z
		 M281.688,531.567c0.62-2.238,1.176-3.351,1.684-3.351v0.382h0.176c0-0.509,0.316-0.937,0.937-1.302l-0.19-0.382l2.239-2.414
		v-0.744h-0.382c0-0.414,0.318-1.209,0.937-2.415c0.62-1.43,1.556-2.619,2.794-3.54l1.476-3.35v-0.191h0.382v0.381h0.19
		c0-0.317,0.238-0.872,0.731-1.682c-0.112-0.222-0.176-0.462-0.176-0.747c0.858-1.238,1.794-3.159,2.794-5.763l0.556-0.747h-0.381
		c0-0.302,0.191-0.746,0.556-1.301v-0.191h-0.365c-0.524,1.271-1.207,2.398-2.047,3.35c0.254,0.033,0.364,0.159,0.364,0.382
		c-0.666,0.715-1.476,2.08-2.413,4.096c-0.238,0-0.811,0.793-1.667,2.414c-0.382,0.491-0.682,0.744-0.937,0.744v0.367
		c0.062,0,0.254-0.129,0.555-0.367l0.382,0.192c0.493-0.714,0.747-1.159,0.747-1.317h0.364c0,0.714-0.429,1.396-1.3,2.049
		c0,0.316-0.318,0.808-0.938,1.492c0,0.491-0.238,0.873-0.746,1.11c-0.668,2.111-1.54,3.175-2.604,3.175v0.175
		c0.381,0,0.572,0.127,0.572,0.382c-0.254,0.032-0.382,0.158-0.382,0.365c0.253,0.031,0.382,0.158,0.382,0.381
		c-0.254,0.126-0.445,0.174-0.572,0.174v0.19l0.381,0.557c-0.684,0-1.112,0.443-1.302,1.302c-0.19,0-0.38,0.19-0.556,0.555
		l0.366,0.192c-0.493,0.84-0.746,1.333-0.746,1.492h-0.366c0-0.254,0.064-0.492,0.19-0.747l-0.38-0.19
		c0,0.382-0.127,0.572-0.365,0.572l-0.382-0.19c-0.983,2.349-1.492,3.716-1.492,4.096c0.191,0,0.445,0.111,0.747,0.365H281.688z
		 M327.972,540.68h-0.381c0.095-0.745,0.285-1.109,0.557-1.109c0.253,0.03,0.38,0.222,0.38,0.555
		C328.147,540.125,327.972,540.315,327.972,540.68z M328.717,539.57h-0.381c0-0.191,0.255-0.383,0.748-0.557
		C329.084,539.379,328.955,539.57,328.717,539.57z M320.526,542.729c0.158,0,0.586-1.238,1.3-3.715v-0.19h-0.19
		C320.89,540.712,320.526,542.014,320.526,542.729z M320.144,541.235c0-0.269,0.254-1.078,0.746-2.412v-0.191h-0.174
		c-0.508,1.62-0.746,2.494-0.746,2.604H320.144z M329.273,538.823v-0.557c0.237,0.033,0.366,0.16,0.366,0.365L329.273,538.823z
		 M325.542,538.632l-0.174-0.365c0.271-0.745,0.523-1.11,0.73-1.11l0.38,0.174C326.162,538.142,325.86,538.568,325.542,538.632z
		 M321.446,537.33c0.014-0.093,0.05-0.24,0.135-0.437l-0.31,0.264v0.173H321.446z M322.573,536.967c0.238,0,0.365-0.318,0.365-0.938
		h-0.175L322.573,536.967z M326.288,536.584c0-0.237-0.189-0.364-0.555-0.364c0-0.19,0.253-0.429,0.745-0.746
		c0.255,0.031,0.365,0.158,0.365,0.381C326.844,536.156,326.669,536.41,326.288,536.584z M327.591,537.33v-0.174
		c0.588-1.255,1.206-1.874,1.856-1.874C329.179,535.901,328.559,536.584,327.591,537.33z M330.576,535.854l-0.19-0.381
		c0.03-0.238,0.222-0.366,0.555-0.366v0.366C330.94,535.727,330.814,535.854,330.576,535.854z M329.084,534.918h-0.191
		c0-0.318,0.255-0.62,0.747-0.937v0.189C329.447,534.663,329.273,534.918,329.084,534.918z M330.02,533.251l-0.19-0.382
		c0.238-0.127,0.492-0.19,0.747-0.19C330.576,532.869,330.386,533.06,330.02,533.251z M329.084,537.33h-0.748v-0.556
		c0.651-0.095,1.334-1.207,2.05-3.35c0.365,0,0.555-0.237,0.555-0.746h0.19l0.557,0.381l0.745-0.556c0,0.11,0.063,0.175,0.19,0.175
		c-0.222,0.619-0.538,0.937-0.936,0.937l-0.937-0.19c0,0.412-0.049,0.715-0.175,0.937h0.175l0.57-0.38
		c0.238,0.031,0.366,0.158,0.366,0.38c-1.08,0.366-1.954,1.302-2.604,2.795V537.33z M328.527,533.425
		c0-0.19,0.127-0.429,0.365-0.746v-0.175c-0.302,0.238-0.557,0.365-0.745,0.365v0.556H328.527z M327.78,532.504v-0.382h-0.189
		c-0.238,0.129-0.429,0.192-0.556,0.192v0.189H327.78z M327.78,531.567c0.492-0.19,0.747-0.429,0.747-0.745
		c-0.318,0-0.618,0.253-0.937,0.745H327.78z M329.829,531.758c0.158,0,0.396-0.381,0.747-1.128v-0.175
		c-0.16,0-0.414,0.303-0.747,0.922V531.758z M329.447,531.758c0-0.096,0.127-0.523,0.382-1.303c-0.159,0-0.413,0.303-0.745,0.922
		v0.381H329.447z M328.527,530.63c0.238,0,0.365-0.11,0.365-0.364l-0.365-0.19c-0.255,0.032-0.38,0.158-0.38,0.38L328.527,530.63z
		 M331.876,529.519v-0.365c-0.254,0.127-0.443,0.176-0.555,0.176v0.189H331.876z M332.433,527.297v-0.572h-0.38v0.572H332.433z
		 M332.243,526.17c0.253-0.128,0.444-0.192,0.555-0.192v-0.364C332.433,525.613,332.243,525.805,332.243,526.17z M341.356,510.546
		h-0.556c-2.224-1.65-3.351-3.572-3.351-5.763c0.81-3.971,2.302-7.018,4.477-9.13l-0.189-0.921c0-0.254,0.189-0.381,0.556-0.381
		c3.001,0,4.985,0.619,5.954,1.857l0.19,0.937c-0.128,0-0.19,0.063-0.19,0.19c0.316,0,0.492,0.491,0.555,1.493
		c-0.238,0.015-0.364,0.205-0.364,0.555c0.126,0,0.302,0.064,0.557,0.175c-0.971,2.588-1.652,3.89-2.049,3.921v0.923
		c-0.619,0.586-0.937,1.079-0.937,1.491l-1.859,2.969h-0.189v-0.555h-0.174c0,1.127-0.62,1.684-1.859,1.684h-0.57V510.546z
		 M379.096,510.546h-0.557c-2.238-1.65-3.349-3.572-3.349-5.763c0.809-3.971,2.286-7.018,4.461-9.13l-0.19-0.921
		c0-0.254,0.19-0.381,0.555-0.381c3.018,0,5.002,0.619,5.955,1.857l0.189,0.937c-0.126,0-0.189,0.063-0.189,0.19
		c0.316,0,0.508,0.491,0.571,1.493c-0.255,0.015-0.382,0.205-0.382,0.555c0.127,0,0.318,0.064,0.557,0.175
		c-0.953,2.588-1.635,3.89-2.049,3.921v0.923c-0.619,0.586-0.921,1.079-0.921,1.491l-1.857,2.969H381.7v-0.555h-0.192
		c0,1.127-0.618,1.684-1.856,1.684h-0.556V510.546z M346.944,585.898c1.619-0.396,2.43-0.713,2.43-0.937
		c-0.128,0-0.445,0.063-0.938,0.191c-0.365-0.128-0.555-0.255-0.555-0.366c-1.112,0.43-1.668,0.729-1.668,0.922
		C346.483,585.709,346.737,585.771,346.944,585.898z M355.692,570.831c0.19,0,0.445-0.254,0.747-0.746
		c-0.302,0-0.62,0.238-0.922,0.746H355.692z M367.981,569.339c-0.19,0-0.445-0.255-0.745-0.746v-0.365h0.189
		c0.238,0.111,0.429,0.175,0.556,0.175V569.339z M369.283,565.624l-0.19-0.382l0.365-0.189h0.19
		C369.648,565.434,369.521,565.624,369.283,565.624z M372.252,563.193c0-0.364,0.128-0.555,0.382-0.555
		C372.634,563.02,372.507,563.193,372.252,563.193z M372.809,560.034c0-0.126,0.063-0.316,0.189-0.555v-0.191h-0.189
		c0,0.128-0.063,0.318-0.175,0.557v0.189H372.809z M375.237,558.733h-0.38c0-0.365,0.126-0.556,0.38-0.556V558.733z
		 M376.157,554.081h-0.175c0-0.492,0.111-0.745,0.366-0.745l0.19,0.38C376.539,553.954,376.412,554.081,376.157,554.081z
		 M375.982,551.477c0-0.189,0.111-0.428,0.366-0.745l-0.366-0.191c-0.252,0.413-0.381,0.715-0.381,0.937H375.982z M354.946,527.852
		l0.191-0.382v-0.173h-0.191c0,0.111-0.063,0.302-0.174,0.555H354.946z M358.486,524.501c0.365-0.618,0.746-0.937,1.112-0.937V523.2
		h-0.175c-0.539,0.303-0.905,0.746-1.128,1.301H358.486z M346.214,586.836h-2.238c-2.238-0.444-3.351-0.811-3.351-1.127
		c-0.493,0-0.984,0.063-1.493,0.189c0-0.189-0.682-0.428-2.047-0.745c-5.954-4.842-8.923-8.495-8.923-10.972
		c-0.318-1.493-0.62-2.365-0.938-2.604c0-0.128,0.065-0.191,0.191-0.191c0-0.125-0.063-0.19-0.191-0.19
		c0-0.222,0.128-0.715,0.383-1.492c-0.128-0.858-0.191-1.604-0.191-2.223l0.191-2.239c-0.128-0.238-0.191-0.428-0.191-0.556
		l0.365-0.189h0.571c1.112,5.176,3.287,9.335,6.51,12.462c2.224,1.129,4.334,1.684,6.319,1.684c4.063,0,8.288-2.54,12.653-7.636
		c2.271-2.445,3.938-4.494,5.018-6.128c1.398-2.732,2.271-4.098,2.62-4.098l-0.191-0.381c5.018-9.082,9.479-19.688,13.401-31.802
		c1.237-3.954,1.857-7.287,1.857-10.05c-0.253-0.874-0.382-1.493-0.382-1.859h-1.856c-2.239,0.857-4.033,1.859-5.397,2.97h-0.367
		c0-0.127-0.062-0.19-0.188-0.19c0,0.38-1.049,1-3.16,1.873c-0.842,0.794-1.952,1.541-3.351,2.223
		c-0.253-0.125-0.429-0.19-0.557-0.19c-0.523,0.383-1.777,1.747-3.73,4.096c-1.541,0.907-3.523,3.447-5.954,7.638
		c-1.539,1.73-2.842,3.97-3.906,6.701h-0.175c-0.253-0.128-0.443-0.191-0.57-0.191c0,0.238-0.143,0.365-0.461,0.365
		c-0.123,0-0.234-0.005-0.339-0.016c-2.614,3.709-4.152,5.641-4.599,5.794c0,0.857-0.491,1.604-1.492,2.224
		c-0.762,1.207-2.698,2.509-5.763,3.906c-2.08,0.508-3.684,0.746-4.844,0.746h-0.555c-2.016-0.493-3.254-0.746-3.716-0.746
		l-0.382,0.19c-2.969-1.176-4.825-2.794-5.572-4.843c-0.38-1.302-0.556-1.983-0.556-2.047v-1.112c0-2.398,0.495-5.06,1.491-7.985
		c-0.784,0.649-1.329,1.078-1.633,1.285c-1.017,1.524-2.446,2.826-4.272,3.905c-1.889,2.24-3.318,3.351-4.285,3.351l-0.557,0.557
		h-0.92c-1.462,0-3.209-1.049-5.225-3.16c-2.604-3.159-3.905-7.002-3.905-11.527c0-1.778,0.063-2.763,0.189-2.985l-0.189-0.365
		l0.382-2.047c-0.129-0.255-0.192-0.444-0.192-0.557c0.128-0.254,0.192-0.444,0.192-0.572c-0.652,0.287-1.589,1.334-2.796,3.176
		c-0.491,0-1.429,1.366-2.794,4.098h-0.191c0-0.127-0.047-0.191-0.174-0.191c-3.349,5.334-6.827,12.034-10.416,20.085
		c0.176,0,0.365,0.191,0.556,0.571c0,0.365-0.127,0.557-0.38,0.557c-0.207,0-0.588-0.129-1.112-0.382
		c-1.111,0.316-1.683,0.555-1.683,0.746l0.191,1.301c-0.27,0-0.889,0.684-1.858,2.049h-1.111v0.191c0.492,0,0.745,0.19,0.745,0.556
		c-1.429,0-2.729-0.874-3.92-2.604c-0.89,0-1.89-2.111-2.969-6.335c0-1.017-0.065-1.572-0.192-1.667
		c0.127-0.254,0.192-0.429,0.192-0.556s-0.065-0.19-0.192-0.19l0.192-0.921c0-2.249,0.349-4.96,1.046-8.134
		c-1.305,1.111-2.325,2.267-3.049,3.482c-1.174,0.523-2.253,1.078-3.254,1.667c-3.287,3.683-5.954,5.923-8.002,6.7
		c-0.206,0-0.762,0.428-1.667,1.301l-2.047,0.747c-0.127,0-0.191-0.063-0.191-0.191c-1.793,1.175-3.905,1.985-6.319,2.413
		l-0.937-0.173c-0.523,0-0.889,0.063-1.112,0.173c-1.046-0.618-2.983-1.412-5.762-2.413c-3.953-2.656-5.938-6.903-5.956-12.755
		l-0.333,0.482l0.175,0.365c-0.079,0.429-0.46,0.809-1.111,1.11l0.191,0.382c-2.763,3.937-4.381,5.985-4.843,6.144
		c0,0.857-0.491,1.604-1.493,2.224c-0.762,1.207-2.698,2.509-5.762,3.906c-2.082,0.508-3.684,0.746-4.845,0.746h-0.555
		c-2.016-0.493-3.254-0.746-3.714-0.746l-0.383,0.19c-2.969-1.176-4.826-2.794-5.573-4.843c-0.38-1.302-0.556-1.983-0.556-2.047
		v-1.112c0-3.382,0.985-7.288,2.971-11.718c1.714-4.685,5.064-10.511,10.05-17.496c0.46-0.429,1.032-1.238,1.682-2.413h0.923
		c0.126,0,0.189,0.063,0.189,0.189c0.127,0,0.19-0.063,0.19-0.189c2.969,0.619,4.461,1.729,4.461,3.35h-0.189
		c0.253,0.492,0.38,1.239,0.38,2.224c-0.351,1.714-1.525,3.761-3.541,6.145h-0.191v0.189h0.382v0.365
		c-0.651,1.127-1.334,1.811-2.049,2.048c0,0.588-0.507,1.206-1.492,1.857l-0.189,0.382h0.189c0.254-0.128,0.429-0.189,0.556-0.189
		v0.189c-0.159,0.396-0.649,0.777-1.493,1.11v-0.364c0.222-0.317,0.413-0.81,0.556-1.492h-0.176
		c-0.999,0.683-1.491,1.111-1.491,1.302h0.365c0,0.365-0.112,0.555-0.365,0.555h-0.556c0,0.382-0.317,0.747-0.937,1.129
		c0,0.364-0.238,0.555-0.746,0.555h-0.556c0,0.239-0.174,0.365-0.556,0.365l-0.364-0.189l-1.303,2.429h-0.189
		c0.031,0.238,0.158,0.364,0.364,0.364c-0.174,0.492-0.364,0.747-0.555,0.747c-0.238,0-0.365-0.128-0.365-0.365
		c1.302-3.445,3.095-7.112,5.398-10.986v-0.557h-0.38c-3.352,5.271-5.828,10.288-7.446,15.066c0,0.318-0.113,0.874-0.367,1.685
		l0.747,0.364c0.875-2.73,1.429-4.097,1.667-4.097h0.382v0.191l-0.191,0.38c0.127,0,0.191,0.049,0.191,0.176
		c-0.318,0-0.747,0.683-1.303,2.048v0.556c0.367,0,0.556,0.063,0.556,0.189l0.365-0.189h0.191c0,0.318-0.191,0.557-0.556,0.746
		c0-0.126-0.063-0.189-0.189-0.189c0,1.126,0.253,1.682,0.746,1.682c0.159-0.127,0.46-0.189,0.937-0.189
		c0,0.381,0.112,0.555,0.366,0.555v0.382l-0.555,0.745l0.364,0.175h0.191c0-0.618,0.127-0.92,0.365-0.92
		c0,0.302,0.127,0.618,0.38,0.92l-1.111,1.684c0.618,0,0.92,0.365,0.92,1.112c0.714,1.11,1.399,1.793,2.048,2.048
		c2.365,0,7.686-3.54,16.005-10.606c0-0.199,1.107-1.575,3.329-4.142c1.021-8.113,5.91-16.091,14.675-23.945
		c3.222-2.492,5.827-3.857,7.812-4.096c1.715,0,3.938,1.428,6.7,4.271c1.493,1.952,2.238,3.509,2.238,4.652
		c0,1.523-1.493,2.572-4.461,3.16c-1.953,1.127-3.381,2.11-4.287,2.984c-1.556,1.825-2.922,3.063-4.096,3.715l-1.111,1.302
		c0,0.317-0.493,0.619-1.493,0.937l0.191,0.366c-1.334,2.365-2.334,3.54-2.985,3.54c0,0.063,0.125,0.255,0.38,0.556
		c-0.873,1.097-1.682,2.51-2.429,4.287c-0.238,0.063-0.492,0.365-0.73,0.92l0.367,0.191c-0.588,1.684-1.081,2.794-1.492,3.349
		c0.252,0.318,0.38,0.557,0.38,0.747c-0.254,0.398-0.38,0.778-0.38,1.112c0,1.715,1.429,2.953,4.285,3.729
		c4.526-0.682,8.13-1.873,10.781-3.54c1.254-0.62,4.732-3.223,10.479-7.811c1.449-1.219,3.102-2.71,4.955-4.476
		c2.481-8.241,6.656-18.72,12.526-31.44l9.114-17.861c0.127-0.746,0.428-1.109,0.936-1.109c2.255,0,4.922,1.427,8.003,4.271
		c1.604,1.745,2.413,3.159,2.413,4.287c0,1.492-1.921,4.397-5.764,8.748c-0.38,0-0.555,0.174-0.555,0.555l0.364-0.189h0.19
		c-0.509,0.714-0.747,1.207-0.747,1.492h-0.38v-0.192l0.19-0.363v-0.191h-0.19c0,0.158-0.557,0.778-1.667,1.858v0.189l0.19,0.366
		c-0.318,0.746-0.747,1.126-1.303,1.126c-0.253,0.398-0.381,0.7-0.381,0.923c0.255,0,0.381-0.191,0.381-0.556h0.366
		c0,0.189-0.431,0.745-1.303,1.667c0.129,0.253,0.191,0.443,0.191,0.57c-1.094,2.064-2.207,3.812-3.35,5.207v0.557
		c0.127,0,0.683-0.557,1.667-1.684v0.191c-0.984,1.524-1.493,2.383-1.493,2.604h-0.174l-0.38-0.192v0.192
		c0.127,0.255,0.191,0.444,0.191,0.555c-0.286,0.19-1.271,1.92-2.969,5.208c-0.158,0-0.476,0.382-0.936,1.126v0.177l0.555-0.366
		l0.191,0.366c-0.429,0.38-1.302,1.872-2.605,4.476l0.367-0.189c0,0.873-0.303,1.302-0.921,1.302c0,0.286,0.062,0.523,0.174,0.746
		c-0.271,0.872-0.523,1.303-0.747,1.303l0.191,0.364c0,0.381-0.191,0.572-0.556,0.572v0.174l0.192,0.381
		c-0.414,0-1.033,0.857-1.859,2.604v0.746l0.731-0.571v0.382c-1.079,2.349-2.318,5.572-3.716,9.668l0.192,0.382
		c-1,2.508-1.493,4-1.493,4.46h0.189c4.794-10.351,9.146-17.987,13.021-22.878c2.174-2.492,4.524-3.73,7.065-3.73
		c2.889,0,5.064,1.492,6.524,4.461c0.207,0.715,0.398,2.27,0.557,4.652l-0.381,1.126l0.19,0.367
		c-0.128,1.269-0.317,2.269-0.556,2.983c0.238,0.031,0.365,0.144,0.365,0.365v0.937c0,0.128-0.063,0.175-0.176,0.175
		c0,0.127,0.049,0.191,0.176,0.191l-0.176,0.746l0.176,1.302c-0.237,0.031-0.365,0.159-0.365,0.365
		c0.27,2.333,1.097,3.492,2.461,3.492c1.303,0,3.715-1.507,7.255-4.509c2.248-1.728,4.329-3.612,6.241-5.656
		c1.898-4.071,4.808-8.851,8.732-14.349c0.46-0.429,1.032-1.238,1.682-2.413h0.922c0.127,0,0.19,0.063,0.19,0.189
		c0.127,0,0.19-0.063,0.19-0.189c2.969,0.619,4.462,1.729,4.462,3.35h-0.191c0.255,0.492,0.382,1.239,0.382,2.224
		c-0.351,1.714-1.525,3.761-3.541,6.145h-0.191v0.189h0.382v0.365c-0.652,1.127-1.334,1.811-2.049,2.048
		c0,0.588-0.507,1.206-1.492,1.857l-0.189,0.382h0.189c0.255-0.128,0.429-0.189,0.556-0.189v0.189
		c-0.158,0.396-0.65,0.777-1.492,1.11v-0.364c0.222-0.317,0.413-0.81,0.557-1.492h-0.177c-0.998,0.683-1.49,1.111-1.49,1.302h0.365
		c0,0.365-0.112,0.555-0.365,0.555h-0.557c0,0.382-0.318,0.747-0.937,1.129c0,0.364-0.238,0.555-0.745,0.555h-0.557
		c0,0.239-0.175,0.365-0.556,0.365l-0.366-0.189l-1.301,2.429h-0.191c0.032,0.238,0.158,0.364,0.365,0.364
		c-0.174,0.492-0.365,0.747-0.555,0.747c-0.238,0-0.366-0.128-0.366-0.365c1.303-3.445,3.096-7.112,5.398-10.986v-0.557h-0.38
		c-3.352,5.271-5.828,10.288-7.448,15.066c0,0.318-0.11,0.874-0.365,1.685l0.747,0.364c0.873-2.73,1.429-4.097,1.667-4.097h0.381
		v0.191l-0.189,0.38c0.126,0,0.189,0.049,0.189,0.176c-0.316,0-0.746,0.683-1.302,2.048v0.556c0.365,0,0.556,0.063,0.556,0.189
		l0.365-0.189h0.191c0,0.318-0.191,0.557-0.557,0.746c0-0.126-0.063-0.189-0.19-0.189c0,1.126,0.254,1.682,0.747,1.682
		c0.158-0.127,0.46-0.189,0.937-0.189c0,0.381,0.112,0.555,0.365,0.555v0.382l-0.557,0.745l0.365,0.175h0.191
		c0-0.618,0.127-0.92,0.365-0.92c0,0.302,0.127,0.618,0.38,0.92l-1.11,1.684c0.618,0,0.92,0.365,0.92,1.112
		c0.715,1.11,1.397,1.793,2.048,2.048c2.304,0,7.408-3.359,15.357-10.059c-0.935-1.025-1.401-2.327-1.401-3.898
		c14.338-16.369,24.497-24.562,30.517-24.562h1.492c3.017,0,6.239,1.858,9.669,5.589c0,2.905-0.301,4.954-0.92,6.145
		c0.127,0.683,0.188,1.238,0.188,1.667c-0.253,0.032-0.38,0.158-0.38,0.364c0,2.081-0.127,3.383-0.365,3.923l0.175,0.365
		c-0.111,0.364-0.237,0.557-0.365,0.557l0.19,0.38c0,0.857-0.127,1.302-0.38,1.302l0.189,0.365v0.746
		c0,0.254-0.126,0.366-0.364,0.366l0.175,0.38c-0.175,0.874-0.493,1.302-0.922,1.302c0.365,0.396,0.555,0.715,0.555,0.921
		c-0.348,0.746-0.649,1.746-0.937,2.986c-0.364,0.285-0.556,0.587-0.556,0.937l0.191,0.365c-0.254,0.745-0.556,1.11-0.936,1.11
		v0.557l0.189,0.38l-0.366,0.19v-0.381h-0.19v0.747h-0.189v0.556h0.189c0-0.366,0.19-0.556,0.557-0.556v0.745h-0.366v0.365h0.366
		v0.746c-1.033,1.621-1.827,2.429-2.413,2.429v0.557c0.111,0,0.492-0.064,1.111-0.19v0.19c-0.287,0.857-0.842,1.303-1.684,1.303
		l0.19,0.364l-0.365,0.556v0.382h0.365c0.255,0,0.382-0.255,0.382-0.746h0.364c0,0.873-0.364,1.301-1.111,1.301
		c-0.445,0.287-0.684,0.589-0.745,0.937h0.363c0.414-0.253,0.715-0.381,0.937-0.381v0.191c-1,0.491-1.492,0.983-1.492,1.492
		c0,0.365-0.238,0.683-0.744,0.921l0.189,0.381v0.175c-0.429,0-0.81,0.382-1.111,1.129l0.175,0.363
		c-0.238,0.493-0.365,0.873-0.365,1.112c0.492,0.189,0.745,0.381,0.745,0.571c0,0.396-0.443,0.951-1.302,1.666
		c-0.285,0.747-0.523,1.112-0.745,1.112c-0.255-0.111-0.43-0.175-0.555-0.175c-0.493,0.62-0.747,0.985-0.747,1.111h0.363
		l0.191-0.746h0.747v0.189c-0.382,0.462-0.555,0.891-0.555,1.303h-1.304c-0.096,1.603-0.349,2.413-0.745,2.413
		c-0.097-0.492-0.224-0.745-0.382-0.745l-1.302,1.127l0.191,0.365l-0.922,1.683c-0.874,0.27-1.318,0.524-1.318,0.73h0.382v0.381
		h-0.382v0.191l0.19,0.364c-0.301,0.254-0.492,0.365-0.555,0.365v-0.365c-0.286,0-0.589,0.301-0.936,0.938h0.38v-0.382h0.364
		c-0.11,0.683-0.175,1.175-0.175,1.492c-0.253-0.125-0.508-0.19-0.746-0.19c0,0.316-0.555,0.747-1.683,1.302
		c0,0.224-0.126,0.523-0.364,0.938v0.19h0.189c0-0.444,0.684-1.001,2.034-1.683c0-0.127,0.062-0.19,0.189-0.19v0.19
		c-1.493,1.698-2.224,2.952-2.224,3.716h-0.571v-0.367c-0.333,0.032-0.587,0.335-0.73,0.937c0.238,0.017,0.365,0.145,0.365,0.367
		l-0.365,0.189h-0.572c0.128,0.237,0.192,0.429,0.192,0.556l-0.366,0.191l-0.381-0.191v0.365h0.381v0.382
		c-0.619,0.301-0.938,0.555-0.938,0.746c-0.158,1.365-0.778,2.047-1.856,2.047c-0.938,1.478-2.922,2.779-5.954,3.906l-0.19-0.381
		c0.127,0,0.19-0.064,0.19-0.189h-0.747c-0.65,0.872-1.588,1.429-2.794,1.682C347.198,586.519,346.451,586.836,346.214,586.836z
		 M397.831,552.224l0.189-0.382h-0.189c-0.254,0.127-0.429,0.19-0.556,0.19v0.191H397.831z M400.624,551.112
		c0.238,0,0.367-0.128,0.367-0.381c-0.367,0-0.557,0.127-0.557,0.381H400.624z M391.876,547.761v-0.569
		c-0.189,0-0.428-0.112-0.745-0.367v0.367C391.131,547.381,391.385,547.571,391.876,547.761z M397.641,547.017
		c0.254,0,0.38-0.192,0.38-0.557C397.768,546.477,397.641,546.666,397.641,547.017z M397.275,546.635
		c0.158,0,0.777-0.618,1.857-1.857v-0.191h-0.365c0,0.255-0.572,0.938-1.684,2.049H397.275z M390.384,545.332
		c0.128-0.238,0.19-0.491,0.19-0.746c-0.19,0-0.364,0.191-0.555,0.571L390.384,545.332z M401.371,544.968
		c0-0.255,0.111-0.382,0.365-0.382v-0.174h-0.365l-0.19,0.365v0.19H401.371z M398.195,546.635l0.938-0.747
		c0,0.382,0.127,0.572,0.365,0.572c0.189-0.509,0.444-0.747,0.746-0.747v0.557h0.19c0-0.159,0.189-0.462,0.557-0.938
		c-0.493-0.189-0.747-0.491-0.747-0.92c-0.92,0.587-1.604,1.207-2.049,1.857V546.635z M408.245,541.982h-0.92v-0.365
		c0.144,0,0.589-0.429,1.302-1.302h0.175v0.191l-0.175,0.365c0.111,0,0.175,0.062,0.175,0.19c-0.491,0.094-0.729,0.206-0.729,0.364
		C408.183,541.681,408.245,541.855,408.245,541.982z M388.526,541.617c0.255-0.65,0.364-1.144,0.364-1.492
		c-0.142,0-0.396,0.316-0.729,0.938C388.161,541.427,388.272,541.617,388.526,541.617z M406.389,540.507h-0.19v-0.191
		c0.19-0.492,0.444-0.745,0.747-0.745v0.364C406.945,540.125,406.753,540.315,406.389,540.507z M404.722,540.872
		c-0.255,0-0.382-0.128-0.382-0.365c0-0.382,0.192-0.572,0.557-0.572v-0.175h-0.557c0-0.318,0.255-0.619,0.747-0.937
		c0.285,0,0.46,0.317,0.555,0.937C405.214,540.507,404.896,540.872,404.722,540.872z M408.245,539.014
		c0-0.382,0.129-0.556,0.382-0.556c0.238,0.11,0.429,0.174,0.557,0.174v0.191L408.245,539.014z M406.945,538.458h-0.192v-0.381
		h-0.174v0.381c-0.254,0-0.381-0.128-0.381-0.381l0.747-0.556h0.555C407.134,537.918,406.945,538.235,406.945,538.458z
		 M405.276,538.458h-0.38c0-0.316,0.254-0.619,0.745-0.937h0.19v0.19C405.452,538.013,405.276,538.267,405.276,538.458z
		 M404.722,538.632h-0.382v-0.174l0.192-0.381c-0.255,0-0.383-0.127-0.383-0.365l0.383-0.19c0.236,0.031,0.364,0.159,0.364,0.365
		C404.769,538.108,404.722,538.363,404.722,538.632z M407.5,538.458c0-0.128-0.063-0.191-0.175-0.191l0.747-1.11
		c0.173,0,0.365,0.174,0.555,0.556C408.007,538.205,407.627,538.458,407.5,538.458z M410.104,542.172h-0.176
		c0-0.285-0.063-0.523-0.19-0.745h0.366c0-0.238-0.112-0.364-0.366-0.364s-0.364,0.173-0.364,0.555h-0.382
		c0-0.349,0.62-1.031,1.857-2.047c0.873-1.525,1.302-2.511,1.302-2.986h0.382c0,0.843-0.683,2.335-2.049,4.479l0.365,0.173
		C410.612,541.809,410.357,542.11,410.104,542.172z M406.198,537.156v-0.382c0.19-0.492,0.381-0.745,0.555-0.745v0.381
		C406.579,536.901,406.389,537.156,406.198,537.156z M403.42,537.712c0-0.254,0.173-0.683,0.557-1.302v-0.19h-0.191
		c0,0.254-0.192,0.682-0.557,1.302v0.19H403.42z M409.549,535.854l-0.175-0.381h0.555
		C409.929,535.727,409.803,535.854,409.549,535.854z M408.245,536.967l-0.173-0.383c0.238-0.729,0.491-1.11,0.729-1.11
		c0,0.126,0.063,0.189,0.19,0.189l-0.19,0.366v0.19h0.382v0.364C408.865,536.584,408.563,536.712,408.245,536.967z M406.753,535.854
		v-0.572h0.381C407.134,535.663,407.007,535.854,406.753,535.854z M389.083,539.76l1.491-5.032h-0.364l-1.127,2.794
		c0.126,0.253,0.191,0.429,0.191,0.556c-0.384,0.064-0.557,0.491-0.557,1.302c0.127,0,0.173,0.126,0.173,0.381H389.083z
		 M408.072,534.551h-0.191v-0.189c0.126-0.254,0.191-0.445,0.191-0.556h0.365v0.365
		C408.438,534.425,408.311,534.551,408.072,534.551z M409.374,533.806h-0.19c-0.254-0.127-0.445-0.19-0.557-0.19v-0.19h0.747
		V533.806z M406.945,534.551h-0.366v-0.189c0.333-0.618,0.649-0.937,0.921-0.937v0.381
		C407.134,533.806,406.945,534.045,406.945,534.551z M390.574,534.361c0.285,0,0.462-0.316,0.557-0.937
		C390.859,533.425,390.67,533.743,390.574,534.361z M408.245,532.122h-0.364v-0.555c0.033-0.254,0.223-0.365,0.557-0.365
		L408.245,532.122z M409.184,525.805v-0.382l-0.746-1.302h-0.192C408.245,524.993,408.563,525.55,409.184,525.805z M396.528,552.97
		l-0.364-0.19c-0.222,0.126-0.604,0.19-1.128,0.19l0.19-0.381c-0.253-0.302-0.38-0.62-0.38-0.92l-0.557,0.363h-0.555
		c-1.462,0-3.256-1.667-5.399-5.016c-0.983-2.509-1.477-4.748-1.477-6.701c0.271-4.684,2.938-10.446,7.987-17.306
		c3.271-3.667,5.619-5.828,7.08-6.51h0.746c1.509,0,3.319,1.302,5.399,3.905c0,0.46,0.983,1.207,2.969,2.239
		c0,0.27,0.428,1.206,1.302,2.778v0.555h-0.365l-0.191-1.301h-0.189l-0.191,1.493c0.191,0,0.381,0.254,0.572,0.745l-0.381,0.191
		l-0.366-0.191v0.747l0.366-0.192h0.189v0.557c-0.253,0-0.381,0.317-0.381,0.937h-0.556c0-0.396-0.176-1.206-0.556-2.413h-0.189
		c0,0.365,0.063,0.682,0.189,0.92c-0.127,0.685-0.189,1.239-0.189,1.684l0.189,0.365c-0.238,0.032-0.365,0.158-0.365,0.382
		c0,0.11,0.063,0.491,0.176,1.111c-0.302,0.254-0.556,0.365-0.73,0.365c0-0.493-0.063-0.985-0.19-1.477h0.365
		c0-0.508-0.064-1-0.175-1.493h-0.382v0.365l0.382,0.557l-0.19,0.381l-0.382-0.191c-0.238,0.032-0.364,0.158-0.364,0.382v0.922
		h-0.365v-0.192l0.173-0.364h-0.364v0.364H407.5c0-0.396,0.254-0.889,0.745-1.477c-0.158-0.618-0.331-0.937-0.555-0.937
		c-0.253,0-0.365,0.255-0.365,0.746h-0.38v-0.556c-0.238,0-0.366,0.191-0.366,0.556c0.128,0.366,0.237,0.556,0.366,0.556h0.555
		c0,0.382-0.366,0.747-1.111,1.111c0.493,0.572,0.745,1,0.745,1.303h-0.381v-0.365h-0.174c0,0.127,0.063,0.555,0.174,1.302
		c-0.238,0-0.364-0.063-0.364-0.19l-0.365,0.19c-0.255,0-0.382-0.063-0.382-0.19l-0.365,0.19h-0.189v-0.19
		c0.62-2.128,1-3.81,1.111-5.017c0-1.699-0.43-3.129-1.302-4.288c-1.827,1.65-4.113,4.383-6.876,8.193l-0.189,0.365
		c0.126,0.253,0.189,0.444,0.189,0.571c-1.745,1.73-2.604,2.905-2.604,3.525c0,0.381-0.381,1.063-1.127,2.048l0.19,0.381
		c-0.19,0-0.429,0.239-0.745,0.745v0.176l0.937,0.191c0-0.191,0.175-0.383,0.555-0.557v0.365c-0.619,0.746-0.937,1.175-0.937,1.301
		l-0.365-0.173h-0.189c-0.747,2.286-1.112,3.969-1.112,5.018h0.19c0,0.492,0.048,0.983,0.175,1.492
		c-0.207,0.126-0.46,0.175-0.745,0.175v0.38h0.936c0.255,0,0.364-0.127,0.364-0.38c-0.364,0-0.618-0.858-0.729-2.605
		c0.365,0,0.555-0.3,0.555-0.921h0.367c-0.238,1.176-0.367,2.113-0.367,2.795c0.238,0,0.367,0.238,0.367,0.731
		c3.636-1.271,7.287-5.732,10.986-13.386c0-0.253,0.175-0.508,0.555-0.746c0.492,0.175,0.747,0.365,0.747,0.556
		c0,0.254-0.191,0.366-0.571,0.366l0.189,0.38c-0.428,0.333-0.745,1.017-0.92,2.049c-0.318,0-0.811,0.92-1.493,2.793
		c-0.317,0-0.682,0.431-1.111,1.304v0.173h0.556v0.383c-0.746,0-1.492,0.983-2.238,2.969c0.651,0,1.715-0.747,3.158-2.223h0.192
		v0.556c-0.778,1.46-1.46,2.382-2.049,2.793l-0.19,1.112h0.19l1.111-0.938v0.381c-0.985,1.144-1.477,1.954-1.477,2.414
		c0.858-0.396,1.794-1.143,2.778-2.239h0.19c-1.078,1.462-1.763,2.207-2.047,2.239v0.19c0.349,0,1.27-0.873,2.794-2.604h-0.365
		v-0.188l1.667-1.304h0.19c0,0.365-0.19,0.557-0.556,0.557v0.38c0.111,0,0.556-0.316,1.302-0.937v0.365
		c0,0.191-0.683,0.81-2.049,1.874c-0.444,0.984-1.365,2.224-2.793,3.716c0.222,0,1.396-1.112,3.54-3.352
		c-0.127-0.253-0.191-0.428-0.191-0.555c0.652,0,1.461-0.81,2.413-2.429h0.192c0,0.127,0.063,0.19,0.189,0.19l0.175-1.112h-0.364
		c0.031-0.254,0.158-0.38,0.364-0.38c0.128,0,0.19,0.063,0.19,0.189l0.382-0.189h0.175l-0.365,0.745c0.127,0,0.19,0.064,0.19,0.191
		l-2.795,3.716c-2.302,2.492-4.032,3.73-5.208,3.73c0,0.365-0.316,0.684-0.937,0.92c0,0.254-0.19,0.382-0.556,0.382v-0.191
		l0.19-0.363c-0.382,0-0.571-0.129-0.571-0.382l-0.921,0.189c0-0.428,0.238-0.682,0.747-0.745v-0.191h-0.191l-0.938,0.747
		l0.192,0.382C398.084,552.525,397.465,552.97,396.528,552.97z M440.715,547.937h-0.382v-0.745c0.032-0.238,0.159-0.367,0.382-0.367
		l0.175,0.367C440.779,547.413,440.715,547.667,440.715,547.937z M418.565,546.46c0.223,0,0.414-0.381,0.557-1.128h-0.365
		C418.63,545.951,418.565,546.333,418.565,546.46z M419.869,546.27c0-0.253,0.063-0.382,0.189-0.382l-0.189-0.363
		c0.126-0.255,0.189-0.431,0.189-0.557c-0.189,0-0.364,0.189-0.557,0.557c0.129,0.222,0.192,0.46,0.192,0.745H419.869z
		 M440.525,544.586v-0.745h0.364v0.38C440.89,544.476,440.779,544.586,440.525,544.586z M420.995,543.284
		c0.112-0.491,0.176-0.857,0.176-1.112h-0.176c-0.126,0.621-0.189,1.002-0.189,1.112H420.995z M442.208,542.919h-0.383
		c0.255-1.11,0.557-1.684,0.938-1.684v0.191C442.382,542.11,442.208,542.603,442.208,542.919z M440.525,542.172
		c0-0.126-0.064-0.189-0.192-0.189c0.192-0.492,0.382-0.747,0.557-0.747v0.573C440.89,542.046,440.779,542.172,440.525,542.172z
		 M419.502,541.809c0-0.382,0.192-0.573,0.557-0.573C420.059,541.427,419.869,541.617,419.502,541.809z M418.947,541.617v-0.745
		c0.238,0.031,0.365,0.158,0.365,0.363C419.313,541.49,419.186,541.617,418.947,541.617z M421.361,541.235h-0.366v-0.173
		c0.112-0.255,0.176-0.445,0.176-0.556h0.38v0.173C421.425,540.934,421.361,541.126,421.361,541.235z M439.969,539.379v-0.556
		c0-0.255-0.127-0.365-0.382-0.365c0,0.27-0.047,0.523-0.174,0.745l0.365,0.176H439.969z M423.6,537.33h-0.382v-0.556h0.382V537.33z
		 M421.916,537.156c0-0.127,0.063-0.318,0.191-0.572v-0.174h-0.191c0,0.126-0.063,0.302-0.19,0.557v0.189H421.916z M422.854,535.282
		c0-0.175,0.126-0.428,0.364-0.731v-0.189c-0.175,0-0.364,0.238-0.555,0.746v0.175H422.854z M420.806,537.712l1.302-2.238
		l-0.191-0.366c0.382-1.191,0.555-1.81,0.555-1.856c-0.173,0-0.856,0.92-2.047,2.778c-0.111-0.238-0.175-0.43-0.175-0.556h-0.19
		l-0.189,1.11l0.38-0.174h0.175c0,0.238-0.047,0.364-0.175,0.364c0.128,0.222,0.175,0.523,0.175,0.938H420.806z M418.947,554.637
		c-2.921,0-4.588-2.286-5.034-6.876v-1.126c0-6.573,2.922-15.131,8.75-25.674l4.097-5.953c1.73,0,3.777,1.682,6.145,5.018v1.872
		c-0.063,0.238-0.382,0.493-0.937,0.747l0.189,0.365c-1.523,1.523-2.572,2.762-3.175,3.715c0-0.111-0.049-0.175-0.176-0.175
		c-1.953,2.699-3.382,4.796-4.287,6.319c-1.363,2.922-2.049,4.524-2.049,4.843l0.383-0.19c0.238,0.031,0.364,0.159,0.364,0.365
		c0,0.318-0.238,0.635-0.747,0.937h-0.173c0-0.271,0.063-0.523,0.173-0.746v-0.19h-0.173l-0.572,1.873h-0.364v-0.557
		c-0.254,0-0.366,0.176-0.366,0.557h-0.381l0.191-0.937l-0.382,0.19v-0.382c0.127-0.238,0.19-0.427,0.19-0.555l-0.556-0.365
		c0,0.127-0.063,0.175-0.189,0.175v-0.73c-0.429,0-0.922,0.921-1.478,2.778l0.365,0.19c-0.253,0.396-0.365,0.714-0.365,0.938
		c0.112,0,0.174,0.063,0.174,0.173h-0.174l0.174,0.382c0,0.365-0.237,0.555-0.745,0.555v0.938c0.382,0.462,0.571,1.017,0.571,1.668
		c-0.381,0-0.571,0.127-0.571,0.38c0.127,0,0.19,0.049,0.19,0.175c-0.19,0-0.365,0.192-0.556,0.556v0.191
		c0.127,0,0.302,0.063,0.556,0.19c0.715-2.112,1.27-3.16,1.684-3.16c0.238,0.111,0.428,0.175,0.555,0.175
		c0-0.65,0.365-1.205,1.112-1.667l0.189-0.745h0.175l0.572,0.363c-1.365,2.985-2.049,4.716-2.049,5.225l0.365-0.19
		c0,1.604-0.127,2.414-0.365,2.414c0.128,0.253,0.175,0.444,0.175,0.555l-0.365,0.746l0.365,0.191
		c4.572-4.874,9.463-11.067,14.703-18.608c0-0.063,2.603-3.413,7.811-10.05c0-0.271,0.619-1.397,1.873-3.351v-0.922
		c0.207,0,0.953,0.065,2.224,0.175l0.38-0.175c0.62,0,1.541,0.922,2.779,2.78c0,0.38-0.047,0.57-0.175,0.57l0.175,0.922
		c0,1.952-0.794,4.556-2.412,7.812h-0.367v-0.557c-0.158,0-0.411,0.318-0.744,0.938v0.19l0.555-0.382h0.189
		c0,0.684-0.506,1.239-1.491,1.684c-1.032,2.351-1.891,3.969-2.604,4.827l0.19,0.381c-0.126,0.238-0.19,0.428-0.19,0.557
		c0,0.363,0.238,0.555,0.747,0.555v0.19c-0.873,0.89-1.557,2.255-2.048,4.097l-0.382,0.174l-0.174-0.365
		c0.237,0,0.363-0.127,0.363-0.382l-0.555-0.729l0.191-0.382v-0.19h-0.191c0,0.413-0.491,0.904-1.492,1.492v-1.667l-0.922,1.667
		v-1.302h-0.189c0,0.747-0.19,1.11-0.556,1.11c0-0.92,0.127-2.222,0.365-3.905v-0.174h-0.191c-0.365,2.096-0.682,3.523-0.92,4.271
		c0.238,1,0.491,1.683,0.746,2.049h-0.191c0.398,2.349,0.842,3.541,1.302,3.541c0,0.364,0.318,0.92,0.938,1.667l0.365-0.19
		l1.3,0.745c0.255-0.11,0.431-0.175,0.557-0.175c0-0.127-0.238-0.872-0.746-2.239v-0.937c0.031-0.237,0.158-0.363,0.382-0.363
		c0-0.129-0.254-0.493-0.747-1.112v-0.191l0.365,0.191l0.382-0.747c-0.127,0-0.192-0.064-0.192-0.189l0.383-0.191l0.364,0.191
		l-0.19,1.302l0.19,1.857c-0.127,0-0.19,0.063-0.19,0.189c0.254,0,0.747,0.874,1.492,2.605c0.224,0.127,0.46,0.19,0.747,0.19
		c1.302,0,2.73-0.684,4.271-2.049c3.636-2.636,8.781-7.224,15.448-13.766c0,0.619-1.238,2.778-3.715,6.51
		c-2.049,3.509-4.351,6.351-6.891,8.558c-4.335,3.351-7.064,5.018-8.193,5.018c-1.047,0.127-1.856,0.19-2.412,0.19
		c-1.493,0-3.16-1.668-5.018-5.018c-1.238-3.207-1.858-5.874-1.858-8.001c0-0.509,0.112-1.621,0.367-3.351h-0.367
		c0,0.651-2.238,4.129-6.7,10.415c-2.668,3.604-5.097,5.398-7.255,5.398l-0.937-0.189
		C420.28,553.336,419.473,553.764,418.947,554.637z M178.568,557.065h-0.937c-0.207-0.253-1.08-0.444-2.605-0.571
		c-3.746-3.19-6.112-6.049-7.064-8.558c-1.238-3.224-1.857-6.256-1.857-9.113c0-3.35,1.539-11.099,4.652-23.26
		c2.969-11.495,4.46-19.323,4.46-23.435c0-0.317-0.493-0.572-1.491-0.746c-1.699,0-3.319,0.555-4.844,1.667
		c-0.269,0-1.079,0.556-2.413,1.683c-0.189,0-1.238,1.175-3.16,3.525c0-0.112-0.064-0.176-0.189-0.176
		c0,0.365-0.128,0.556-0.367,0.556l-0.38-0.19c0,0.127-0.063,0.19-0.174,0.19c0.111,0.238,0.174,0.493,0.174,0.746l-1.858,2.604
		c0,0.159-0.238,0.271-0.746,0.366l0.191,0.937c-0.556,0.588-1.049,1.572-1.493,2.969h-0.174l-0.382-0.175v1.302
		c-0.286,0-0.523,0.239-0.747,0.729c0.129,0.255,0.191,0.447,0.191,0.573c-0.095,0-0.396,0.301-0.937,0.92
		c0-0.649,0.127-1.206,0.382-1.666v-0.19h-0.191l-0.191,0.937c-0.238,0-0.493-0.064-0.747-0.19v0.19l0.383,0.556l-0.383,0.557
		c0.383,0,0.572,0.19,0.572,0.555c-0.189,0.492-0.572,0.745-1.127,0.745v0.19h0.381c0,0.238-0.065,0.366-0.191,0.366l0.191,0.381
		c-0.35,0.858-0.589,1.303-0.747,1.303l-0.38-0.191l-1.112,2.239c0.254,0.396,0.381,0.698,0.381,0.92h-0.191l0.191,0.381v0.176
		l-1.127,0.38c0,0.129,0.064,0.493,0.19,1.112c-0.126,0-0.19,0.063-0.19,0.191l-0.365-0.191h-0.191v0.937
		c-0.127,0-0.254,0.175-0.365,0.555c0.365,0,0.556,0.063,0.556,0.177c0,0.634-0.191,0.936-0.556,0.936
		c0,1.271-0.443,2.445-1.302,3.54c0,0.62-0.127,0.922-0.38,0.922c0.126,0.254,0.189,0.445,0.189,0.555l-0.746,1.319v0.173
		l0.189,0.382c-0.38,0.492-0.682,0.747-0.937,0.747l0.381,0.555c0,0.239-0.127,0.365-0.381,0.365
		c0.128,0.255,0.191,0.492,0.191,0.747h-0.555c0.238,0.396,0.364,0.778,0.364,1.111c-0.746,1.032-1.111,1.952-1.111,2.794h-0.381
		v-0.365h-0.175c0,0.239,0.065,0.492,0.175,0.745c-0.206,1.24-0.396,1.859-0.556,1.859l0.192,0.364
		c-0.192,0.382-0.556,1.556-1.112,3.541h-0.19l0.19,0.364c0,0.254-0.316,1.303-0.936,3.161c-1.429,5.953-2.413,8.938-2.969,8.938
		c-0.223,0.126-0.604,0.19-1.127,0.19l-0.556-0.381h-0.364v0.747l0.173,0.38c-0.396,0.238-0.778,0.365-1.11,0.365l-0.937-0.556
		c-0.207,0.127-0.461,0.19-0.73,0.19c-0.714-0.063-2.334-1.684-4.843-4.843c-0.874-0.189-1.301-0.428-1.301-0.746
		c0.365-0.904,2.112-6.604,5.208-17.115c3.349-9.24,5.334-14.512,5.954-15.815l5.207-12.097c0.523-0.557,1.524-2.351,2.985-5.398
		c0.334-0.206,1.271-1.634,2.778-4.271c3.938-4.523,7.178-7.144,9.685-7.812c0-0.317,2.351-0.937,7.066-1.873l2.603,0.38
		l0.382-0.189c3.747,1.049,6.16,2.604,7.256,4.652c0.111,0.253,0.174,0.428,0.174,0.556l0.38-0.19c0.176,0,0.493,0.381,0.923,1.128
		v0.365l-0.367-0.191h-0.189c0.491,1.398,0.746,2.524,0.746,3.351h-0.189c0,0.126,0.063,0.189,0.189,0.189
		c-0.492,2.302-0.746,3.541-0.746,3.732l0.38,0.174c-0.094,0.746-0.222,1.128-0.38,1.128l0.189,0.365v0.189
		c-0.189,0-0.428,0.128-0.746,0.366l0.189,0.381c0,0.11-0.062,0.175-0.189,0.175c0.127,0.254,0.189,0.443,0.189,0.556l-0.189,0.745
		l0.189,0.381c-0.062,0.619-0.253,0.923-0.555,0.923v0.189l0.365,0.556c-0.254,0.158-0.493,1.715-0.747,4.652h-0.189
		c0,0.126,0.064,0.19,0.189,0.19c0,0.303-0.302,1.11-0.92,2.413c0,0.413-0.064,0.715-0.191,0.937
		c0.127,0.222,0.191,0.46,0.191,0.745l-0.572,1.304l0.192,0.364c-0.223,0.414-0.398,1.096-0.556,2.048l0.189,0.381
		c-0.349,0.621-0.587,1.478-0.746,2.604h-0.191l0.191,0.365c-0.493,4.191-0.937,6.858-1.303,8.003
		c0.129,0.222,0.192,0.46,0.192,0.745l-0.572,3.16c0,0.127,0.063,0.316,0.19,0.555c-0.285,2.985-0.46,4.462-0.556,4.462
		c0,0.128,0.063,0.19,0.191,0.19c-0.253,1-0.382,2.73-0.382,5.208l0.191,0.937h-0.191c0,0.127,0.065,0.19,0.191,0.19l-0.191,0.922
		c0,0.126,0.065,0.316,0.191,0.555c0,0.127-0.063,0.191-0.191,0.191c0,1.461,0.684,3.016,2.049,4.652l0.38,0.19
		c2.065-3.796,4.986-10.797,8.733-21.021l5.954-15.639c2.049-5.113,4.033-10.258,5.954-15.433c2.571-5.938,4.128-9.336,4.652-10.242
		c-0.127-0.253-0.174-0.428-0.174-0.555c0.364-0.16,1.111-1.335,2.223-3.542v-0.189l-0.192-0.366c0.477,0,0.969-0.937,1.493-2.793
		c0.318,0,1.065-1.238,2.24-3.716c0.238,0,0.365-0.126,0.365-0.38c-0.127-0.238-0.176-0.431-0.176-0.557
		c0.556-0.334,1.731-2.19,3.526-5.572l4.287-6.51c2.507-2.858,4.683-4.287,6.509-4.287c1.603,0.618,2.414,1.047,2.414,1.302v0.365
		c-0.556,0-1.303,1-2.223,2.985c-0.286,0-0.603,0.254-0.937,0.747l0.189,0.363c-0.222,0.286-0.524,1.033-0.937,2.238
		c0.127,0.255,0.19,0.43,0.19,0.557c-0.127,0.254-0.19,0.429-0.19,0.555c0.381,0,0.556-0.491,0.556-1.491h0.38v0.19l-0.189,0.381
		c0.254,0.032,0.364,0.143,0.364,0.365c0,0.381-0.174,0.555-0.555,0.555l0.191,0.382l-0.366,0.174
		c-0.318-0.238-0.507-0.363-0.571-0.363c0,0.125-0.049,0.3-0.175,0.555c0.126,0.223,0.175,0.461,0.175,0.745
		c-0.238,0.398-0.367,0.778-0.367,1.112l0.367,0.557h-0.175l-0.381-0.176l-0.175,0.366c0.111,0.222,0.175,0.46,0.175,0.746h-0.747
		l-0.364-0.189c-0.493,1.714-0.747,2.825-0.747,3.349c0.127,0.255,0.191,0.444,0.191,0.557l-0.382,0.19h-0.174v-0.747l-0.38,0.191
		l0.189,0.365c-0.316,1.158-0.937,2.207-1.856,3.176c0.125,0.238,0.174,0.428,0.174,0.555l-0.365-0.19
		c0,0.317-0.254,0.81-0.747,1.492v0.556c-0.126,0-0.429,0.364-0.92,1.111l0.174,0.382v0.174c-0.493,0-0.747,0.126-0.747,0.381v0.556
		l0.381-0.19c0,0.127,0.063,0.317,0.191,0.556h-0.937c0.031,0.255,0.158,0.381,0.364,0.381c-0.651,1.492-1.015,2.239-1.111,2.239
		c0-0.127,0.064-0.509,0.191-1.127c-0.158,0-0.413,0.38-0.747,1.127l0.191,0.364c-0.508,0.192-0.747,0.43-0.747,0.747h0.556v0.365
		c0,0.254-0.125,0.38-0.364,0.38h-0.382c0-0.507-0.19-0.745-0.555-0.745c0,0.222-0.129,0.587-0.381,1.111
		c0.252,0.031,0.381,0.159,0.381,0.381v0.73c-0.35,0-0.652,0.317-0.938,0.937v0.191h0.381v0.19c-0.254,0-0.381,0.047-0.381,0.175
		c0,0.127,0.063,0.316,0.19,0.555c-0.285,1.874-0.714,2.796-1.302,2.796v-0.366l0.364-0.746l-0.555-0.381
		c0,0.746-0.302,1.555-0.922,2.429c0,0.364-0.062,0.555-0.19,0.555c0.128,0.255,0.19,0.43,0.19,0.557h0.176
		c0.316-1.365,0.618-2.047,0.936-2.047v0.38c-0.128,0.238-0.19,0.429-0.19,0.556c0.19,0,0.38,0.175,0.555,0.555
		c0,0.255-0.11,0.366-0.364,0.366h-0.556c-0.127,1.127-0.318,1.683-0.557,1.683l0.176,0.365c0,0.128-0.049,0.191-0.176,0.191
		c0.127,0.254,0.176,0.428,0.176,0.556c0.285,0,0.714-0.921,1.3-2.795c0.318-0.238,0.572-0.366,0.747-0.366v-0.19
		c-0.366,0-0.555-0.126-0.555-0.364v-0.556c0.031-0.254,0.222-0.38,0.555-0.38l-0.366,0.744h0.366c0.222,0,0.778-1.428,1.682-4.27
		h0.367c0,0.364-0.065,0.556-0.174,0.556l0.174,0.364l-0.556,1.112c0.127,0.222,0.189,0.477,0.189,0.746
		c-0.253,0.683-0.38,1.239-0.38,1.683h-0.364v-0.746h-0.192c-0.492,1.334-0.745,2.143-0.745,2.413v0.746
		c-0.238-0.127-0.429-0.189-0.555-0.189c-0.778,2.207-1.398,3.636-1.859,4.285h-0.19l0.19,0.367c0,0.284-0.317,0.476-0.937,0.569
		c-0.11-0.253-0.175-0.443-0.175-0.569h-0.189l-0.365,0.189c0.079,0.492,0.206,0.747,0.365,0.747
		c0.254-0.129,0.428-0.191,0.555-0.191c0.127,0.255,0.19,0.493,0.19,0.747c-0.348,0.586-0.84,1.761-1.491,3.54
		c-0.366,0-0.556,0.173-0.556,0.556l-0.555-0.383v0.383h0.365v0.364l-0.365-0.174h-0.191v0.365h0.364l-0.173,1.492h-0.191v-0.382
		h-0.366v0.937c0,0.129-0.063,0.19-0.19,0.19l0.19,0.366v1.11l-0.381-0.175c-0.127,0-0.189,0.065-0.189,0.175l-0.922-0.364v0.557
		h0.366v0.381h-0.366v0.556c0.491,0.032,0.746,0.269,0.746,0.745l-0.38,0.175c0-0.238-0.127-0.364-0.366-0.364
		c0,0.364-0.063,0.81-0.19,1.301c0.254,0.032,0.382,0.19,0.382,0.46c0,0.318-0.127,0.477-0.382,0.477
		c-0.126-0.253-0.191-0.444-0.191-0.569h-0.364v0.936h0.364v0.189h-0.364v0.175l0.19,0.382l-0.383,0.19l-0.364-0.19
		c0,0.587-0.318,1.08-0.937,1.492c0.254,0.032,0.38,0.207,0.38,0.555l-0.38-0.189l-1.112,0.189c0,0.238,0.191,0.367,0.556,0.367
		l-0.365,0.556v0.57l0.746,0.73v0.192h-0.189l-1.127-0.923l-0.365,0.556h0.189l-0.189,0.367v0.189h0.189v-0.382h0.176l0.38,0.192
		l-0.38,0.745c0.126,0,0.191,0.063,0.191,0.19c-0.238,0.126-0.429,0.174-0.556,0.174c0,0.684,0.063,1.365,0.189,2.049
		c-0.317,0.254-0.555,0.382-0.746,0.382l0.191,0.365v0.555c0,0.254-0.127,0.382-0.382,0.382v-0.937h-0.189l-0.365,0.189
		c0.127,0.254,0.19,0.429,0.19,0.556c-0.254,0.873-0.556,1.302-0.936,1.302v0.382h0.38v2.224h-0.191l-0.382-1.304h-0.174
		c0,0.618-0.063,0.937-0.189,0.937l0.189,0.367c0,0.253-0.063,0.38-0.189,0.38l0.189,0.365v0.555c0,0.16-0.318,0.414-0.937,0.747
		h-0.365v-0.365h-0.191l-0.189,1.302l0.556-0.381c-0.145,1.746-0.462,2.604-0.923,2.604l0.192,0.938l-0.192,0.745
		c0.334,0,0.588-0.492,0.747-1.492h0.365c-0.365,1.396-0.556,2.207-0.556,2.412h-0.364v-0.555h-0.381
		c0,0.381-0.064,0.81-0.191,1.302v0.746c-1.142,2.017-2.017,4.001-2.604,5.954c-0.27,0-0.46,0.381-0.557,1.112h-0.189l0.189,0.38
		v0.189h-0.189l-0.367-0.189l-0.364,0.556l0.175,0.937c-0.429,0-0.747,0.428-0.92,1.302l-1.303,2.224
		c-0.413,0.509-1.587,1.492-3.542,2.985c-1.587,0.618-2.826,0.92-3.714,0.92c0,0.254-0.127,0.382-0.382,0.382
		c-0.238,0-0.493-0.063-0.746-0.191C178.933,556.939,178.806,557.065,178.568,557.065z"/>
	<g id="doggo">
		<path fill-rule="evenodd" clip-rule="evenodd" fill="#D1D3D4" d="M324.143,460.987c11.693,0.604,19.821,1.94,19.821,3.491
			c0,2.119-15.165,3.835-33.872,3.835s-33.872-1.716-33.872-3.835c0-1.079,3.927-2.052,10.245-2.749
			c1.568,2.025,5.984,3.186,14.852,3.254l4.895,0.402l7.314-2.472C321.696,466.798,323.031,460.941,324.143,460.987"/>
		<path fill-rule="evenodd" clip-rule="evenodd" fill="#E6E7E8" d="M258.81,358.448c4.332-4.646,11.106-7.89,19.61-9.456
			c8.273-1.521,15.251-1.392,20.581,0.827c5.729,2.384,9.475,6.988,10.817,14.28c1.383,7.525,0.436,16.697-4.111,24.058
			c-3.705,5.999-9.732,10.788-18.714,12.539c-0.119,0-0.296,0.07-0.41,0.07c-9.915,1.823-17.466-0.892-22.889-5.784
			c-5.309-4.792-8.478-11.655-9.778-18.316c0-0.123-0.073-0.304-0.073-0.423C252.543,369.174,254.424,363.152,258.81,358.448
			 M226.897,368.432l-7.789-2.031l3.725-7.789l5.164-12.658c0,0,17.649-13.969,23.746-12.614c6.096,1.354,8.344,2.921,10.375,7.663
			c0,0,13.883-22.014,37.928-23.368c24.045-1.355,37.504,8.981,40.549,10.588c0.403-0.23,10.614-5.379,17.232,0.97
			c4.37,4.194,10.807,6.77,10.807,6.77s-3.836,2.964-4.782,2.645c-3.066-1.031-10.531-3.855-21.138,0.024
			c-13.882,5.078-23.421,10.137-21.729,21.646c0.91,6.199,6.61,11.812,11.045,15.292l-0.887,3.231
			c-3.039,0.674-8.37,2.499-7.392,6.901c1.354,6.095,12.191,1.016,12.191,1.016l7.558-2.958c2.846,0.313,5.929,0.281,8.982-0.422
			c1.368-0.317,2.646-0.711,3.835-1.16l8.913-1.722c0,0,16.301,24.24-3.34,37.109c-16.518,10.824-32.422,7.247-47.361,18.215
			l-11.304-1.033l-15.462-0.202c4.568-5.349,1.288-8.23,1.288-8.23l-3.23,5.104c0,0-2.708-0.002-5.078-5.08l0.678,5.758
			c0,0-12.87-7.452-16.595-17.948l-5.08,0.676c0,0-0.337-6.772-3.724-7.451c0,0,1.693-8.802-2.371-15.238
			c-4.065-6.434-11.176-26.753-7.451-32.85c0,0-5.417,5.08-9.482,6.774C232.655,367.755,226.897,368.432,226.897,368.432z"/>
		<path fill-rule="evenodd" clip-rule="evenodd" fill="#E6E7E8" d="M321.379,427.06c-1.033,0.532-1.943,1.21-2.724,2.105
			c-0.022,3.843,0.778,7.243,2.529,14.027c2.337,9.056,0.524,19.985-9.229,16.905c0,0-7.711-13.715-6.999-20.278
			c-0.446,0.248-4.81,4.872-2.998,10.772c2.415,7.874,2.22,11.325-5.132,8.513c3.261,10.258-14.014,0.852-15.924-1.563
			c-18.578-3.806-18.582-22.334-2.249-20.738c-11.419,8.263-0.538,15.708,2.513,16.682c0,0-1.648-10.77,10.018-22.721
			c2.022-2.072,1.123-4.438,1.082-5.325l10.833,4.457l13.243-1.117C316.342,428.779,319.016,427.532,321.379,427.06"/>
		<path fill-rule="evenodd" clip-rule="evenodd" fill="#FFFFFF" d="M365.986,374.236c0,0-2.576-2.705-6.826-3.478
			c0,0,2.189-20.478-9.016-32.199c0,0-29.495-1.16-29.108,21.38c9.66,25.245,31.428,22.411,36.707,20.479
			C363.023,378.486,365.986,374.236,365.986,374.236 M258.81,358.448c4.332-4.646,11.106-7.89,19.61-9.456
			c8.273-1.521,15.251-1.392,20.581,0.827c5.729,2.384,9.475,6.988,10.817,14.28c1.383,7.525,0.436,16.697-4.111,24.058
			c-3.705,5.999-9.732,10.788-18.714,12.539c-0.119,0-0.296,0.07-0.41,0.07c-9.915,1.823-17.466-0.892-22.889-5.784
			c-5.309-4.792-8.478-11.655-9.778-18.316c0-0.123-0.073-0.304-0.073-0.423C252.543,369.174,254.424,363.152,258.81,358.448z"/>
		<path fill="#43525A" d="M265.431,332.442c0.778,0.438,1.053,1.425,0.616,2.204c-0.438,0.778-1.426,1.053-2.204,0.616
			c-3.878-3.504-8.315-6.103-13.622-7.288c-6.542,1.964-13.708,5.91-21.856,13.406c-0.445,3.681-0.919,18.074-6.616,22.595
			c15.204,3.429,34.548-7.817,28.262-27.683c-0.663-1.765,2.381-6.416,4.236-1.476c2.739,19.921-12.095,37.988-35.215,33.932
			c-1.804-0.316-3.131-1.615-3.078-2.967c0.036-0.897,0.589-1.76,1.749-2.511c5.528-3.581,7.014-22.055,7.019-22.106
			c0.049-0.46,0.877-1.697,1.215-2.06c6.034-6.473,14.009-11.083,23.309-14.376c0.554-0.196,1.1-0.268,1.696-0.064
			C256.053,326.412,260.855,329.085,265.431,332.442"/>
		<path fill="#43525A" d="M267.804,331.637c-1.317,1.742-3.721-0.483-2.451-2.121c4.137-5.333,11.969-12.749,24.663-15.584
			c12.517-2.796,12.323-10.974,12.328-10.999c0.215-0.868,1.099-1.397,1.968-1.181s1.395,1.099,1.181,1.967
			c-0.007,0.03-0.428,9.892-14.779,13.373C279.163,319.895,271.833,326.312,267.804,331.637"/>
		<path fill="#43525A" d="M308.42,314.604c-0.617,0.647-1.645,0.674-2.292,0.058s-0.675-1.644-0.058-2.292
			c0.025-0.027,9.172-9.904,14.221-10.292c0.894-0.067,1.673,0.604,1.739,1.498c0.066,0.894-0.604,1.673-1.498,1.739
			C316.805,305.601,308.443,314.579,308.42,314.604"/>
		<path fill="#43525A" d="M317.342,320.528c-3.277,1.143-4.308-3.021-1.169-3.642c2.631-0.522,12.624-3.505,15.689-8.422
			c1.124-1.803,3.884-0.096,2.756,1.713C330.947,316.064,317.376,320.518,317.342,320.528"/>
		<path fill="#43525A" d="M329.498,322.878c-0.711,0.543-1.729,0.407-2.273-0.305c-0.543-0.711-0.406-1.73,0.305-2.273
			c0.021-0.016,7.49-5.708,15.432-6.067c0.894-0.038,1.65,0.655,1.688,1.548s-0.654,1.65-1.548,1.688
			C336.185,317.783,329.517,322.863,329.498,322.878"/>
		<path fill="#43525A" d="M339.755,326.387c-1.859,1.021-3.433-1.85-1.548-2.843c24.851-13.119,25.344,6.726,32.847,7.223
			c1.047,0.069,1.517,0.33,1.908,0.913c0.681,1.013,0.246,2.271-1.064,3.454c-0.742,0.668-1.871,1.448-3.234,2.174
			c-11.051,5.882-15.846,0.749-24.31-5.942c-0.696-0.56-0.523-1.196,0.317-1.486c1.718-0.593,4.644-0.583,6.061,0.782
			c0.404,0.39,0.506,0.713,0.177,0.478c-0.228-0.164-0.601-0.293-1.169-0.397c-0.585-0.105-0.67,0.216-0.503,0.352
			c5.713,4.599,9.681,7.75,17.903,3.357c0.635-0.339,1.203-0.687,1.681-1.021C357.162,327.887,357.734,316.504,339.755,326.387"/>
		<path fill="#43525A" d="M369.456,375.689c5.673,4.534,10.872,12.426,9.702,25.979c-0.076,0.894-0.865,1.555-1.759,1.479
			c-0.894-0.076-1.555-0.865-1.479-1.758c1.051-12.178-3.589-19.219-8.62-23.239C368.083,377.369,368.801,376.548,369.456,375.689
			 M356.302,373.037c-0.884-0.146-1.48-0.983-1.334-1.867c0.146-0.884,0.983-1.48,1.867-1.333c0.024,0.004,3.163,0.498,7.087,2.39
			c-0.719,0.87-1.532,1.688-2.449,2.438C358.535,373.39,356.321,373.04,356.302,373.037z"/>
		<path fill="#43525A" d="M368.729,388.856c-0.593-0.67-0.529-1.694,0.14-2.286c0.67-0.593,1.693-0.53,2.286,0.14
			c0.028,0.032,10.677,11.862,6.626,22.808c-0.308,0.841-1.242,1.273-2.082,0.965c-0.841-0.308-1.273-1.242-0.965-2.083
			C378.107,399.283,368.756,388.884,368.729,388.856"/>
		<path fill="#43525A" d="M368.501,401.156c-0.974-1.896,1.906-3.379,2.883-1.484c0.02,0.04,7.798,14.371-7.328,22.955
			c-2.222,1.263-3.283-2.287-0.98-3.594C375.435,412.02,368.516,401.187,368.501,401.156"/>
		<path fill="#43525A" d="M358.522,413.142c1.146-2.453,3.018-1.709,1.946,1.08c-2.706,7.044-9.649,8.195-12.643,14.229
			c-1.311,2.644-4.862,1.13-2.955-2.261C347.724,421.117,356.926,416.554,358.522,413.142"/>
		<path fill="#43525A" d="M337.76,418.968c1.203-0.902,2.484-0.892,2.992-0.156c0.508,0.736,0.321,1.748-0.413,2.253
			c-0.027,0.019-10.695,6.422-10.075,11.006c0.346,2.561-3.227,2.267-3.236,0.412C326.991,425.782,337.277,419.33,337.76,418.968"/>
		<path fill="#43525A" d="M323.455,422.146c0.878-0.162,1.726,0.418,1.889,1.298c0.162,0.88-0.419,1.727-1.299,1.888
			c-0.031,0.006-11.992,2.151-13.462,6.518c-0.286,0.851-1.209,1.309-2.06,1.022c-0.85-0.286-1.309-1.209-1.021-2.06
			C309.586,424.617,323.418,422.152,323.455,422.146"/>
		<path fill="#43525A" d="M308.425,419.37c0.771-0.451,1.765-0.191,2.216,0.579c0.451,0.771,0.191,1.765-0.579,2.216
			c-0.02,0.011-7.244,4-9.63,6.727c-0.589,0.673-1.613,0.741-2.285,0.152c-0.673-0.588-0.742-1.613-0.153-2.285
			C300.807,423.542,308.404,419.382,308.425,419.37"/>
		<path fill="#43525A" d="M300.285,410.245c4.796-3.423,5.225-2.724,2.832-0.482c-2.507,2.35-15.047,12.522-17.298,26.62
			c-0.428,2.678-3.998,2.106-3.549-1.712C283.833,421.368,300.238,410.278,300.285,410.245"/>
		<path fill="#43525A" d="M278.038,428.839c0.715,0.536,0.86,1.551,0.324,2.267c-0.536,0.715-1.551,0.86-2.266,0.324
			c-0.021-0.016-8.042-5.919-5.742-11.903c0.318-0.834,1.254-1.252,2.089-0.934c0.835,0.318,1.252,1.255,0.934,2.089
			C271.966,424.354,278.022,428.827,278.038,428.839"/>
		<path fill="#43525A" d="M268.758,422.353c1.872,2.157-0.958,5.064-3.439,2.242c-0.014-0.017-4.819-6.003-0.031-12.777
			c1.358-1.92,4.052-0.493,2.755,1.713C265.145,418.457,268.75,422.342,268.758,422.353"/>
		<path fill="#43525A" d="M258.935,417.959c-2.79,1.216-4.787-1.663-1.577-3.021c3.056-1.293,4.562-2.473,5.936-4.369
			c1.658-2.287,3.548-0.117,1.816,2.298C263.174,415.565,261.348,416.907,258.935,417.959"/>
		<path fill="#43525A" d="M250.596,410.206c-0.894-0.052-1.575-0.819-1.524-1.713c0.052-0.894,0.82-1.576,1.713-1.524
			c0.016,0,5.866,0.307,7.675-4.521c0.313-0.838,1.245-1.264,2.083-0.952c0.838,0.313,1.265,1.245,0.953,2.083
			C258.851,410.636,250.618,410.208,250.596,410.206"/>
		<path fill="#43525A" d="M253.045,402.123c-0.834,0.318-1.771-0.099-2.089-0.934c-0.318-0.834,0.1-1.771,0.934-2.089
			c0.012-0.003,4.489-1.807,4.16-11.064c-0.031-0.894,0.668-1.645,1.562-1.675c0.894-0.031,1.645,0.668,1.675,1.562
			C259.699,399.466,253.063,402.117,253.045,402.123"/>
		<path fill="#43525A" d="M325.311,444.917c2.33,4.692,3.195,18.118-3.354,19.999c-3.235,0.929-6.351-0.17-8.266-1.28
			c-5.353,0.877-7.127,1.393-9.964,1.217c-20.192,4.585-33.079-10.352-20.853-25.807c2.289-2.895,5.178-5.049,6.22-5.687
			c2.664-1.63-0.65,1.718-3.157,5.674c-10.074,15.89,2.235,26.881,13.151,21.901c2.885,2.3,7.749,3.451,10.435,1.385
			c1.782-0.506-0.35-3.553,0.396-4.622c1.178-2.183,1.834-4.656,2.003-7.795c0.892-0.669,2.69-1.348,4.242-2.233
			c0.021,1.435-1.004,3.705-1.743,5.241c-2.904,6.033,2.042,9.36,5.509,7.996c5.712-2.245,5.562-12.552,4.236-16.896
			C323.623,442.219,324.293,442.87,325.311,444.917"/>
		<path fill="#43525A" d="M320.392,429.668c0.333-2.299,4.018-1.438,2.193,0.352c-2.508,2.461,0.141,4.685,2.569,6.011
			c4.637,2.528,0.15,3.265-1.495,1.782C321.376,435.755,320.098,431.703,320.392,429.668"/>
		<path fill="#43525A" d="M270.874,441.099c-0.336,1.136-2.365,0.293-1.648-2.582c0.62-2.48,3.941-3.947,7.529-3.776
			c1.262,0.06,1.276,1.268,0.011,1.334C274.116,436.215,271.484,439.037,270.874,441.099"/>
		<path fill="#43525A" d="M278.855,436.36c1.485-0.586,1.679,0.074,0.486,0.813c-6.222,5.248-4.232,11.983,1.777,13.176
			c0.072,1.285,0.427,3.725,0.211,5.035C269.526,451.473,270.122,439.808,278.855,436.36"/>
		<path fill="#43525A" d="M274.135,455.278c0.815,0.371,0.812,2.139-1.041,1.747c-7.479-1.582-10.317-6.076-10.807-10.548
			c-0.115-1.048,0.904-1.965,1.824-0.079C266.221,450.711,269.635,453.227,274.135,455.278"/>
		<path fill="#43525A" d="M268.439,446.476c0.486,1.297-0.595,1.549-2.236,0.092c-2.254-2.001-2.231-6.332-0.735-8.538
			c1.013-1.495,2.501-0.935,2.191,0.609C267.073,441.552,267.026,442.703,268.439,446.476"/>
		<path fill="#43525A" d="M305.014,439.484c1.119-4.142,1.95-2.43,1.687-1.456c-1.661,6.358,6.12,19.815,4.447,24.196
			c-1.363,3.57-7.659,4.718-11.136,3.688c-4.457-1.321-6.785-9.091-5.615-15.897c0.253-1.474,1.457-1.302,1.61,2.091
			c0.524,11.704,10.18,11.627,11.376,7.933C308.283,457.256,302.713,448.462,305.014,439.484"/>
		<path fill="#43525A" d="M351.003,344.049c-0.416-0.792-0.112-1.774,0.68-2.191c0.793-0.417,1.775-0.113,2.191,0.68
			c0.024,0.046,6.919,11.361,5.958,24.586c-0.063,0.893-0.84,1.567-1.732,1.504c-0.894-0.063-1.567-0.839-1.505-1.732
			C357.488,354.608,351.026,344.093,351.003,344.049"/>
		<path fill="#43525A" d="M247.336,359.826c0.14-0.882-0.462-1.716-1.346-1.856c-0.884-0.141-1.718,0.461-1.857,1.346
			c-0.011,0.051-1.299,10.014,3.708,22.104l2.782-1.774C246.225,368.667,247.327,359.876,247.336,359.826"/>
		<path fill="#43525A" d="M254.241,340.303c0.8,0.449,3.989,3.143,2.297,7.968c-0.396,1.13-1.003,1.775-1.092-0.397
			c-0.101-2.479-2.707-3.862-2.716-3.866L254.241,340.303z"/>
		<path fill="#43525A" d="M322.093,437.537c-0.198-0.689,0.022-1.339,0.36-0.689c1.106,2.112,2.438,3.115,5.091,4.208
			c2.713,1.119-0.421,3.277-1.862,2.253C323.632,441.852,322.66,439.513,322.093,437.537"/>
		<path fill="#43525A" d="M324.491,442.891c-0.425-0.605-1.067-0.768-0.555,0.376c1.115,2.492,2.29,3.801,2.696,5.106
			c0.613,1.964,3.066,0.118,1.261-2.706C327.039,444.333,325.356,444.126,324.491,442.891"/>
		<path fill="#43525A" d="M317.842,444.366c0.001-0.787,0.022-1.466-0.417-0.766c-1.466,2.345-3.557,4.219-6.685,5.784
			C307.125,451.194,317.833,452.731,317.842,444.366"/>
		<path fill="#43525A" d="M319.066,439.371c0.034-0.594,0.015-1.104-0.297-0.548c-1.042,1.861-2.45,3.585-4.751,4.792
			c-1.598,0.839,0.354,1.202,2.291,0.115C318.572,442.462,318.981,440.823,319.066,439.371"/>
		<path fill="#04BAB4" d="M361.275,342.408c-4.483-2.201-10.632-2.644-17.808-1.326c-7.094,1.306-12.502,3.401-15.765,6.493
			c-2.928,2.773-4.116,6.556-3.196,11.556c1.139,6.195,4.505,12.938,10.053,17.189c4.288,3.284,9.96,5.065,17.008,3.873l0.458-0.083
			c7.712-1.418,12.388-5.365,14.889-10.254c2.567-5.02,2.962-11.112,2.031-16.601l-0.085-0.467
			C367.945,347.819,365.248,344.359,361.275,342.408 M342.3,334.707c8.539-1.568,16.07-0.938,21.818,1.885
			c5.855,2.875,9.813,7.897,11.13,15.053l0.102,0.552c1.131,6.691,0.596,14.223-2.67,20.606c-3.362,6.574-9.51,11.854-19.513,13.695
			l-0.538,0.099c-4.918,0.831-9.337,0.515-13.249-0.639c0.303-0.734,2.82-1.282,2.646-2.047c-1.227-5.37-10.841-5.027-13.713-4.407
			c-4.858-4.601-8.072-10.736-9.623-16.688l-5.893,1.085c1.296,8.118,0.157,17.799-4.678,25.625
			c-4.081,6.607-10.719,11.881-20.612,13.809c-0.131,0-0.328,0.08-0.452,0.08c-10.923,2.007-19.238-0.984-25.211-6.372
			c-3.466-3.128-6.104-7.058-7.975-11.268l-3.723,2.374c-2.296,1.464-2.847,2.995-2.668,4.831c0.292,2.996,2.662,5.698-0.221,7.036
			c-2.652,1.231-4.402-0.964-5.116-3.492c-1.618-5.732-0.779-10.455,4.525-13.836l5.008-3.194c-0.229-0.874-0.427-1.751-0.598-2.624
			c0-0.136-0.081-0.337-0.081-0.467c-1.431-7.788,0.642-14.419,5.47-19.6c4.771-5.118,12.234-8.691,21.599-10.414
			c9.112-1.676,16.8-1.533,22.67,0.91c4.757,1.979,8.271,5.348,10.347,10.326l6.629-1.221c-0.153-5.538,1.791-9.996,5.523-13.53
			C327.467,338.862,333.984,336.236,342.3,334.707z M279.231,352.767c-7.979,1.468-14.208,4.372-18.019,8.457
			c-3.414,3.662-4.871,8.396-3.846,13.999l0.08,0.406c1.196,6.111,4.035,12.343,8.742,16.59c4.578,4.131,11.054,6.407,19.686,4.824
			l0.391-0.077c7.9-1.545,13.154-5.679,16.343-10.841c4.099-6.639,4.934-15.012,3.662-21.928c-1.037-5.637-3.814-9.148-8.027-10.901
			C293.591,351.358,287.125,351.314,279.231,352.767z"/>
		<path fill="#FFFFFF" d="M367.613,341.313c1.238,1.154-0.48,2.531-1.587,1.266C364.911,341.305,366.065,339.868,367.613,341.313
			 M356.584,336.27c0.481,0.064,1.098,0.409,1.648,0.528c1.554,0.339,3.291,0.638,4.619,1.163c1.874,0.74,1.146,2.729-0.047,2.195
			c-1.299-0.583-3.242-1.732-4.667-2.037c-0.539-0.115-1.19,0.032-1.734-0.053C354.681,337.799,355.01,336.06,356.584,336.27z
			 M347.625,336.286c0.774-0.049,1.433,0.048,2.408,0.024c0.492-0.012,0.486-0.345,1.083-0.338c1.683,0.021,1.545,1.263,0.023,1.246
			c-0.575-0.006-0.895-0.354-1.372-0.366c-0.974-0.025-1.249,0.191-2.003,0.242C346.116,337.207,345.689,336.411,347.625,336.286z"
			/>
		<path fill="#FFFFFF" d="M295.8,349.968c-1.431-0.599-1.025-2.597,0.735-2.032C298.688,348.628,297.736,350.776,295.8,349.968
			 M303.728,354.566c-0.408-0.478-1.084-1.946-1.616-2.344c-0.476-0.354-1.391-0.325-2.009-0.794
			c-0.867-0.658-0.076-2.015,0.999-1.496c0.707,0.34,0.548,0.619,1.558,1.152c0.426,0.225,2.109,0.901,2.991,1.521
			C307.622,353.99,305.633,356.785,303.728,354.566z"/>
		<path fill="#43525A" d="M286.576,380.91c-0.091,0.891-0.887,1.54-1.778,1.449s-1.54-0.887-1.449-1.778
			c0.005-0.055,1.782-20.027,14.469-5.798c0.597,0.669,0.538,1.697-0.132,2.293c-0.67,0.596-1.698,0.537-2.293-0.133
			C287.704,368.32,286.579,380.875,286.576,380.91"/>
		<path fill="#43525A" d="M336.599,367.075c-0.079,0.892-0.868,1.548-1.759,1.468c-0.892-0.08-1.548-0.869-1.468-1.76
			c0.004-0.049,1.617-18.142,13.113-5.249c0.597,0.67,0.538,1.697-0.132,2.293s-1.697,0.537-2.294-0.133
			C337.553,356.397,336.602,367.047,336.599,367.075"/>
		<path fill-rule="evenodd" clip-rule="evenodd" fill="#43525A" d="M342.006,384.533c-1.254,4.837-4.745,9.25-8.34,10.752
			c-3.222,1.348-8.975-0.359-14.083-4.525C311.632,384.274,344.295,375.709,342.006,384.533"/>
	</g>
</g>
</svg>
