<svg id="Capa_1" enable-background="new 0 0 512.002 512.002" height="512" viewBox="0 0 512.002 512.002" width="512" xmlns="http://www.w3.org/2000/svg">
    <g clip-rule="evenodd" fill-rule="evenodd">
    <path d="m256.001 139c9.611 0 17.748-6.306 20.501-15.006 8.099 4.205 18.312 2.911 25.107-3.885 1.211-1.211 2.247-2.531 3.108-3.928 3.975-6.441 4.233-14.524.777-21.18 8.7-2.753 15.006-10.89 15.006-20.501s-6.306-17.748-15.006-20.501c4.205-8.099 2.911-18.312-3.885-25.107-6.796-6.796-17.009-8.09-25.107-3.885-2.753-8.701-10.89-15.007-20.501-15.007s-17.748 6.306-20.501 15.006c-8.099-4.205-18.311-2.911-25.107 3.885s-8.09 17.009-3.885 25.107c-8.7 2.753-15.006 10.89-15.006 20.501s6.306 17.748 15.006 20.501c-3.456 6.655-3.197 14.739.777 21.18.861 1.397 1.897 2.717 3.108 3.928 6.796 6.796 17.009 8.09 25.107 3.885 2.753 8.701 10.89 15.007 20.501 15.007z" fill="#ff764e"/>
    <path d="m132.001 382.002c4.021-108.735 33.289-211.73 75.283-265.821-3.974-6.441-4.232-14.525-.776-21.18-90.657 43.997-156.511 161.696-164.508 287.001z" fill="#ffc144"/>
    <path d="m207.284 116.181c-41.993 54.09-71.262 157.086-75.283 265.821h124v-68.003c-20.514-5.479-80.247-59.531-49.219-90.459 11.421-11.384 30.108-11.384 41.529 0 2.095 2.088 4.868 3.234 7.69 3.246v-87.786c-9.611 0-17.748-6.306-20.501-15.006-8.099 4.205-18.311 2.911-25.107-3.885-1.211-1.212-2.248-2.531-3.109-3.928z" fill="#88df8e"/>
    <path d="m256.001 139v87.786c2.703.013 5.451-1.014 7.691-3.246 11.42-11.384 30.108-11.384 41.528 0 31.027 30.928-28.705 84.98-49.219 90.459v68.003h124c-4.021-108.735-33.289-211.73-75.283-265.821-.861 1.397-1.898 2.716-3.109 3.927-6.796 6.796-17.009 8.09-25.107 3.885-2.753 8.701-10.89 15.007-20.501 15.007z" fill="#00ccf2"/>
    <path d="m304.718 116.181c41.994 54.09 71.262 157.086 75.283 265.821h90.001c-7.997-125.305-73.851-243.004-164.507-287.001 3.456 6.655 3.197 14.739-.777 21.18z" fill="#b278d3"/>
    <path d="m256.001 313.999c20.514-5.479 80.247-59.531 49.219-90.459-11.42-11.384-30.108-11.384-41.528 0-2.24 2.232-4.988 3.259-7.691 3.247-2.822-.013-5.595-1.158-7.69-3.247-11.421-11.384-30.108-11.384-41.529 0-31.027 30.928 28.705 84.98 49.219 90.459z" fill="#ff5d7d"/>
    <path d="m380.001 382.002h-124-124-90.001c-17.6 0-32 14.4-32 32v56c0 17.6 14.4 32 32 32h428.002c17.6 0 32-14.4 32-32v-56c0-17.6-14.4-32-32-32z" fill="#ff764e"/>
    </g>
    <path d="m479.36 373.066c-10.087-120.666-71.328-230.582-155.275-279.462 4.071-5.346 6.416-11.995 6.416-19.105 0-10.331-4.951-19.691-12.957-25.492 1.561-9.762-1.558-19.882-8.863-27.187-7.306-7.305-17.421-10.424-27.188-8.864-5.8-8.005-15.161-12.956-25.492-12.956s-19.691 4.951-25.492 12.956c-9.765-1.559-19.882 1.559-27.187 8.864-7.306 7.305-10.425 17.424-8.864 27.187-8.007 5.8-12.957 15.161-12.957 25.492 0 7.11 2.346 13.761 6.418 19.108-4.976 2.901-9.908 6.027-14.749 9.369-4.545 3.137-5.687 9.365-2.549 13.91 1.94 2.812 5.063 4.32 8.238 4.32 1.959 0 3.938-.575 5.672-1.771 3.46-2.388 6.968-4.651 10.502-6.792.197.774.43 1.539.686 2.298-40.334 55.467-68.027 152.697-73.288 257.061h-69.61c6.393-69.863 31.676-139.135 70.159-191.526 3.27-4.451 2.312-10.71-2.14-13.979-4.449-3.269-10.709-2.311-13.979 2.14-21.22 28.889-38.512 61.978-51.396 98.346-12.14 34.27-19.802 69.918-22.826 106.085-18.666 4.265-32.639 20.993-32.639 40.934v56c0 23.159 18.841 42 42 42h428.002c23.159 0 42-18.841 42-42v-56c0-19.942-13.975-36.67-32.642-40.936zm-20.161-1.064h-69.627c-5.26-104.352-32.955-201.594-73.288-257.061.259-.766.493-1.538.691-2.319 76.369 46.12 132.132 147.493 142.224 259.38zm-188.447-141.381c7.557-7.532 19.853-7.533 27.409 0 5.587 5.569 7.11 12.195 4.794 20.854-6.028 22.533-34.174 46.359-46.954 51.93-12.78-5.571-40.925-29.397-46.953-51.931-2.316-8.658-.793-15.284 4.794-20.854 3.778-3.767 8.741-5.65 13.705-5.65 4.963 0 9.926 1.883 13.704 5.65 8.27 8.246 21.228 8.247 29.501.001zm-4.751 90.099c18.974-9.442 48.875-36.416 56.274-64.076 4.176-15.61.72-29.506-9.995-40.187-12.508-12.468-31.409-14.768-46.279-6.907v-62.173c6.225-2.069 11.645-6.023 15.492-11.334 7.594 1.213 15.396-.417 21.928-4.632 35.729 52.505 61.088 144.592 66.121 240.59h-103.541zm-56.476-257.188c2.814-.891 5.092-2.979 6.221-5.707 1.13-2.728.997-5.814-.363-8.435-2.32-4.468-1.483-9.864 2.081-13.428s8.961-4.401 13.428-2.082c2.618 1.361 5.705 1.493 8.436.364 2.728-1.13 4.816-3.407 5.707-6.222 1.518-4.798 5.925-8.022 10.966-8.022s9.448 3.224 10.967 8.023c.891 2.815 2.979 5.092 5.707 6.222 2.729 1.129 5.816.997 8.436-.364 4.467-2.319 9.864-1.483 13.429 2.082 3.564 3.564 4.4 8.96 2.081 13.427-1.361 2.62-1.494 5.708-.365 8.435 1.13 2.728 3.407 4.817 6.222 5.708 4.8 1.519 8.024 5.926 8.024 10.967s-3.225 9.448-8.023 10.967c-2.815.891-5.093 2.98-6.223 5.708-1.129 2.728-.996 5.815.365 8.436 2.319 4.467 1.483 9.863-2.082 13.428-3.563 3.564-8.961 4.401-13.428 2.081-2.622-1.361-5.71-1.493-8.436-.364-2.728 1.13-4.816 3.407-5.707 6.222-1.519 4.799-5.926 8.023-10.967 8.023s-9.448-3.224-10.967-8.023c-.891-2.815-2.979-5.092-5.707-6.222-1.229-.508-2.528-.761-3.827-.761-1.585 0-3.168.377-4.608 1.125-4.466 2.319-9.863 1.484-13.428-2.081-3.564-3.564-4.401-8.961-2.081-13.428 1.36-2.621 1.493-5.708.363-8.436s-3.407-4.816-6.222-5.707c-4.799-1.519-8.023-5.926-8.023-10.967s3.225-9.449 8.024-10.969zm-.944 67.88c6.532 4.216 14.334 5.846 21.928 4.631 3.847 5.31 9.267 9.265 15.492 11.334v62.173c-14.87-7.861-33.77-5.561-46.278 6.907-10.715 10.681-14.171 24.577-9.995 40.187 7.399 27.66 37.3 54.635 56.273 64.077v51.282h-103.541c5.033-96.011 30.391-188.086 66.121-240.591zm283.421 338.59c0 8.531-4.885 15.938-12.001 19.586v-19.603c0-5.523-4.478-10-10-10s-10 4.477-10 10v22.017h-33.499v-23.034c0-5.523-4.478-10-10-10s-10 4.477-10 10v23.034h-33.501v-22.017c0-5.523-4.478-10-10-10s-10 4.477-10 10v22.017h-33.5v-22.017c0-5.523-4.478-10-10-10s-10 4.477-10 10v22.017h-33.5v-22.017c0-5.523-4.478-10-10-10s-10 4.477-10 10v22.017h-33.5v-22.017c0-5.523-4.478-10-10-10s-10 4.477-10 10v22.017h-33.5v-22.017c0-5.523-4.478-10-10-10s-10 4.477-10 10v22.017h-33.5v-22.017c0-5.523-4.478-10-10-10s-10 4.477-10 10v22.017h-33.5v-22.017c0-5.523-4.478-10-10-10s-10 4.477-10 10v19.603c-7.116-3.648-12.001-11.055-12.001-19.586v-56c0-12.13 9.868-21.998 21.997-22h.013.01 427.982c12.131 0 22 9.869 22 22z"/><path d="m144.229 150.233c2.719 0 5.429-1.103 7.402-3.273l.005-.005c3.715-4.086 3.411-10.408-.675-14.123-4.088-3.715-10.414-3.412-14.129.675-3.715 4.086-3.414 10.411.673 14.126 1.917 1.741 4.324 2.6 6.724 2.6z"/>
    </svg>